<svg id="Layer_1" data-name="Layer 1" xmlns="http://www.w3.org/2000/svg" viewBox="0 0 410.61 328.14"><defs><style>.cls-1{fill:#ff5043;}</style></defs><title>crush_heart</title><path class="cls-1" d="M582,136.56c-.19,15.93-6.28,30.28-12.64,44.39-9.19,20.39-20,40-30.85,59.57-20.68,37.37-41.1,74.87-59.53,113.41-4.48,9.37-9.36,18.61-12.67,28.52a12.22,12.22,0,0,0-3.3,8.07c-3.64,4.72-4.89,10.54-7.17,15.87-5.19,12.13-9.87,24.48-14.81,36.72-2.37,5.84-2.43,5.81-7.85,3.23a723.58,723.58,0,0,0-66.79-28.24,599.58,599.58,0,0,1-72.82-31.57c-2.48-1.28-4.9-2.75-7.78-3-2.08-2.61-5.1-3.6-8.11-4.58-2.85-1.66-5.69-3.34-8.57-5A538.83,538.83,0,0,1,205,331.39a146.84,146.84,0,0,1-26-26.61c-4.44-5.74-7.43-12.1-7.57-19.52l1.89-6.57c7.77-10.39,19.24-12.93,31.11-13.92,17.62-1.48,35.22-.41,52.72,2,34.39,4.78,68.56,10.94,102.57,17.79,27.76,5.6,55.82,9.63,83.39,16.18a25.67,25.67,0,0,0,3.5.36c1.5-1.5,1.12-3.09,1.08-4.55-.56-19.68,4.14-38.37,11.26-56.47,8.14-20.69,19.54-39.59,32.6-57.64,12.48-17.26,27.23-32.28,43.11-46.29a74.35,74.35,0,0,1,23.32-14.41c10.06-3.72,15.66-2.14,22.21,5.86C580.77,130.61,581.38,133.58,582,136.56Z" transform="translate(-171.39 -119.86)"/></svg>