<svg id="Layer_1" data-name="Layer 1" xmlns="http://www.w3.org/2000/svg" viewBox="0 0 455.34 425.57"><defs><style>.cls-1{fill:#ff5043;}.cls-2{fill:#121111;}</style></defs><title>crush_map_logo</title><path class="cls-1" d="M521.15,173.57c-5.79-2.41-11.75-4.44-17.38-7.25-8.66-4.33-17.46-8.44-25.56-13.81-4.23-2.81-8.35-5.79-12.48-8.74a54,54,0,0,1-10.31-10,15,15,0,0,1-3-5.27,6.29,6.29,0,0,1,2.62-7.51,16.66,16.66,0,0,1,7-2.47c6.19-1,12.36-.5,18.51.23,11.1,1.31,22.12,3.24,33,5.56,11.84,2.52,23.86,4,35.62,6.87a7.81,7.81,0,0,0,.82.14c1.7.22,1.84.2,1.79-1.45a51.85,51.85,0,0,1,3.7-19.48,94.62,94.62,0,0,1,12.69-22.64,99.21,99.21,0,0,1,16.86-17.52,20.79,20.79,0,0,1,7.49-4.11c4.49-1.29,7.49.88,7.73,5.51a24.58,24.58,0,0,1-1.66,9.21,90.8,90.8,0,0,1-4.6,11c-4.57,9.18-9.58,18.13-14.49,27.12-7.78,14.28-15.29,28.69-21.76,43.61-2.86,6.61-5.43,13.34-8.12,20-.25.6-.48,1.2-.74,1.79a.82.82,0,0,1-1.32.43c-4.61-2.56-9.57-4.35-14.35-6.54-3-1.37-6-2.85-9.34-3.3C523.3,173.87,522.14,173.89,521.15,173.57Z" transform="translate(-160.3 -65.75)"/><path class="cls-1" d="M533.79,431.4c3.69.81,7.36,1.72,11.07,2.41,6.72,1.26,13.45,2.46,20.13,3.91,2,.43,2,.4,2-1.62a56.54,56.54,0,0,1,5-22.29,91.6,91.6,0,0,1,7.3-13.68,105.94,105.94,0,0,1,18.59-21.54,33.22,33.22,0,0,1,7.58-5.09,12.87,12.87,0,0,1,3.94-1.26,5.13,5.13,0,0,1,5.88,3.89,11.75,11.75,0,0,1,.14,5.21A52.19,52.19,0,0,1,610.81,395c-3.4,7.38-7.3,14.52-11.22,21.64-7.49,13.6-14.9,27.24-21.54,41.27q-6.87,14.53-12.51,29.6c-.36,1-.77,1.88-1.13,2.83s-.81,1.34-1.86.78c-12.86-6.79-26.9-10.8-40.09-16.8-8.74-4-17.51-8-25.58-13.22-6.19-4-12.55-7.83-18.18-12.66a59.77,59.77,0,0,1-8.3-8.53,18.78,18.78,0,0,1-2.18-3.52c-1.91-4.06-.75-7.47,3.21-9.56a21.39,21.39,0,0,1,9.1-2.13,100.28,100.28,0,0,1,21.81,1.47c8.56,1.43,17.11,3,25.66,4.45.54.09,1.1.11,1.65.16A8.76,8.76,0,0,0,533.79,431.4Z" transform="translate(-160.3 -65.75)"/><path class="cls-1" d="M307.83,345.19c-4,11.49-9.95,22-15.75,32.63-5,9.07-9.92,18.15-14.63,27.35a420,420,0,0,0-19.52,44.05c-.32.85-.71,1.68-1.13,2.67-3.29-1.48-6.49-2.82-9.59-4.37-6.3-3.14-13-5.36-19.51-7.86a230.2,230.2,0,0,1-38.33-18.6,139.19,139.19,0,0,1-17.71-12.34,60.34,60.34,0,0,1-8.47-8.74,14.58,14.58,0,0,1-2.34-4.07c-1.3-3.65-.29-6.53,3.07-8.5s7.35-2.39,11.23-2.55a106.75,106.75,0,0,1,21.78,1.83c10.3,1.71,20.61,3.34,30.82,5.49,9.76,2.06,19.65,3.38,29.35,5.72a4.58,4.58,0,0,0,2.83.15c.35-2.88.13-5.84.61-8.76a67.16,67.16,0,0,1,6.65-19.88,99.67,99.67,0,0,1,22.46-29.28,42.12,42.12,0,0,1,8.25-6,11.23,11.23,0,0,1,5-1.52,5,5,0,0,1,5.51,4.66,40.63,40.63,0,0,1,.13,4.42A9,9,0,0,0,307.83,345.19Z" transform="translate(-160.3 -65.75)"/><path class="cls-1" d="M285.55,260.33a84,84,0,0,0-5.4,11.82c-2.09,5.13-4.1,10.29-6.15,15.43a1.88,1.88,0,0,1-1,1.22c-11.66-6.56-24.72-10.19-37-15.6-9.2-4.05-18.46-8.11-27-13.43-6.18-3.85-12.46-7.6-18.18-12.16a66.39,66.39,0,0,1-10.36-10,15.4,15.4,0,0,1-3.06-5.23c-1.05-3.51-.06-6.14,3.09-8,3.45-2.06,7.33-2.44,11.22-2.6a98,98,0,0,1,18.49,1.32c15.62,2.3,31.09,5.48,46.65,8.15,5.55.94,11,2.3,16.53,3.47.54.12,1.09.19,1.63.34,1.38.37,1.81-.21,1.75-1.55a43.08,43.08,0,0,1,1-10.18,67.2,67.2,0,0,1,7.56-19.85,100.2,100.2,0,0,1,17.46-23.15A58.16,58.16,0,0,1,313,171.91a17.13,17.13,0,0,1,5.05-2.22c4.12-.92,6.9,1.21,7.15,5.42a23.73,23.73,0,0,1-1.76,9.75,110.4,110.4,0,0,1-5.25,12.2c-5.41,10.51-11.2,20.81-16.81,31.22q-7.44,13.77-14.17,27.9c-.23.5-.36,1-.54,1.56A3.92,3.92,0,0,0,285.55,260.33Z" transform="translate(-160.3 -65.75)"/><path class="cls-1" d="M482.81,217.92c-.07,5.78-2.27,11-4.57,16.11-3.32,7.41-7.24,14.52-11.15,21.63-7.48,13.56-14.86,27.18-21.52,41.17A91.91,91.91,0,0,0,441,307.18a4.44,4.44,0,0,0-1.19,2.93c-1.32,1.71-1.77,3.83-2.59,5.76-1.88,4.4-3.57,8.89-5.36,13.33-.85,2.12-.87,2.11-2.84,1.17-7.89-3.77-15.9-7.28-24.14-10.25a216.13,216.13,0,0,1-26.32-11.46,7.93,7.93,0,0,0-2.81-1.1,5.61,5.61,0,0,0-2.93-1.66c-1-.61-2.06-1.22-3.1-1.81a194.36,194.36,0,0,1-23.17-15.44,53.14,53.14,0,0,1-9.41-9.66,11.84,11.84,0,0,1-2.74-7.09l.68-2.39c2.81-3.77,6.95-4.69,11.25-5.05a85.53,85.53,0,0,1,19.05.74c12.43,1.74,24.79,4,37.08,6.46,10,2,20.18,3.49,30.14,5.87a8.56,8.56,0,0,0,1.26.13,1.83,1.83,0,0,0,.39-1.65c-.2-7.14,1.5-13.93,4.08-20.5a95.7,95.7,0,0,1,11.78-20.93,103.41,103.41,0,0,1,15.58-16.8,27,27,0,0,1,8.43-5.23c3.64-1.35,5.66-.77,8,2.13C482.36,215.76,482.59,216.84,482.81,217.92Z" transform="translate(-160.3 -65.75)"/><path class="cls-2" d="M439.8,310.11a4.44,4.44,0,0,1,1.19-2.93l14.3,19,.82,1.11c5.83,7.75,11.69,15.48,17.5,23.23q10.31,13.74,20.54,27.52,9.62,12.87,19.2,25.75,10.23,13.79,20.44,27.58a8.76,8.76,0,0,1-4.14-.67q-8.19-11-16.4-22-10.51-14.1-21.05-28.19-8.7-11.65-17.36-23.33Q463.58,342.13,452.3,327C448.11,321.42,444,315.76,439.8,310.11Z" transform="translate(-160.3 -65.75)"/><path class="cls-2" d="M372.81,305.9a5.61,5.61,0,0,1,2.93,1.66c-9.51,5.46-19.19,10.61-28.74,16-8.83,5-17.79,9.7-26.6,14.7-4.16,2.37-8.3,4.77-12.57,6.93a9,9,0,0,1,.7-3.51q7.5-4.16,15-8.31c12.11-6.69,24.28-13.27,36.31-20.1C364.15,310.81,368.57,308.5,372.81,305.9Z" transform="translate(-160.3 -65.75)"/><path class="cls-2" d="M482.81,217.92c-.22-1.08-.45-2.16-.67-3.24,5-4.66,9.4-9.88,14.14-14.78q9.71-10.05,19.31-20.19c1.9-2,3.71-4.09,5.56-6.14,1,.32,2.15.3,2.76,1.37-9.16,9.62-18.37,19.19-27.44,28.89C492,208.61,487.49,213.34,482.81,217.92Z" transform="translate(-160.3 -65.75)"/><path class="cls-2" d="M335.07,269.51l-.68,2.39-48.84-11.57a3.92,3.92,0,0,1,1.07-2.59c13.5,3.91,27.31,6.61,40.94,10C330.06,268.34,332.57,268.92,335.07,269.51Z" transform="translate(-160.3 -65.75)"/></svg>