<svg id="Layer_1" data-name="Layer 1" xmlns="http://www.w3.org/2000/svg" viewBox="0 0 465.34 414.47"><defs><style>.cls-1{fill:#fffeff;}.cls-2{fill:#12050f;}.cls-3{fill:#140510;}</style></defs><title>crush_map_logo_white</title><path class="cls-1" d="M520,175.87c-6.58-2.63-13.17-5.23-19.68-8A212.51,212.51,0,0,1,469.43,151a81.28,81.28,0,0,1-14.62-11.52,23.77,23.77,0,0,1-4.61-6.22c-1.89-4-.82-7.17,3.1-9.28,3.56-1.91,7.5-2.23,11.42-2.37a106.83,106.83,0,0,1,21.21,1.75c17.69,2.95,35.35,6.07,53,9.15,3.31.57,6.59,1.32,9.89,2,2.19.44,2.3.39,2.32-1.69.1-11.38,4-21.53,10.16-31A110.19,110.19,0,0,1,578,81.08a65.9,65.9,0,0,1,9.59-7.62,18.11,18.11,0,0,1,6.17-2.56c3.86-.81,6.67,1.27,7,5.13a19.65,19.65,0,0,1-1,7.6,90.56,90.56,0,0,1-8.48,18.25c-3.67,6.19-7.12,12.51-10.67,18.78C574,132.3,567.71,144.13,561.59,156c-4.74,9.2-8.56,18.77-12.58,28.26-.15.34-.25.69-.41,1-.76,1.66-.78,1.68-2.45.92-4.5-2-9-4.1-13.63-5.82-3.23-1.2-6.51-2.29-9.76-3.43A8.89,8.89,0,0,0,520,175.87Z" transform="translate(-150.99 -70.73)"/><path class="cls-1" d="M278.83,260.3c-2.12,3.37-3.47,7.1-5.07,10.71-2.19,5-4.19,10-6.28,15-.81,1.95-.81,2-2.87,1-9.61-4.6-19.73-7.93-29.66-11.71a238.35,238.35,0,0,1-44.34-21.76c-6.22-4-12.21-8.17-17.32-13.49a22.23,22.23,0,0,1-4.39-6c-1.78-3.87-.73-7,3.1-9.05,3.65-1.93,7.68-2.29,11.7-2.4,8.17-.22,16.23.91,24.25,2.25,15.57,2.61,31.11,5.35,46.66,8.08,4.32.76,8.61,1.69,12.92,2.54,2.18.43,2.25.37,2.32-1.72.41-12.92,5.21-24.27,12.66-34.74a112.31,112.31,0,0,1,13.89-16.58,52,52,0,0,1,12-9.06,13.82,13.82,0,0,1,4.74-1.62c3.41-.37,5.59,1.14,6.36,4.42a10.11,10.11,0,0,1,0,4.38,57.69,57.69,0,0,1-6.74,17.13c-2.9,5-5.58,10.2-8.45,15.25-7.36,13-14.79,26-21.5,39.34-1,1.89-2.31,3.57-2.85,5.65A3.6,3.6,0,0,0,278.83,260.3Z" transform="translate(-150.99 -70.73)"/><path class="cls-1" d="M532.92,427.09c4.43,1.17,9,1.63,13.5,2.49q9.21,1.76,18.44,3.51c1.82.34,2,.22,2-1.51-.1-11.45,4.14-21.56,9.88-31.2A89.56,89.56,0,0,1,590.08,383a74.87,74.87,0,0,1,12.79-10.73,20.9,20.9,0,0,1,5.79-2.73c4.36-1.14,7.44,1.06,7.65,5.51.16,3.38-.88,6.54-2,9.66a122.33,122.33,0,0,1-8.25,17.2c-4.43,8-8.83,16-13.52,23.86-6.83,11.44-12.8,23.28-18.48,35.29-3.35,7.09-6.26,14.36-9.25,21.6-.21.51-.42,1-.62,1.54-.36,1-.92,1.23-1.94.76-2.63-1.2-5.29-2.33-7.94-3.47-8-3.42-16.17-6.32-24.32-9.33A244.59,244.59,0,0,1,502.65,460a176.21,176.21,0,0,1-24.41-15.16,67.8,67.8,0,0,1-11.08-10.53,11.62,11.62,0,0,1-1.9-3.36c-1.32-3.4-.28-6.07,2.91-8,3.77-2.21,7.94-2.64,12.16-2.81a102.65,102.65,0,0,1,17.33,1.21c9.37,1.2,18.64,3,27.93,4.65.82.14,1.68.12,2.51.18A9.53,9.53,0,0,0,532.92,427.09Z" transform="translate(-150.99 -70.73)"/><path class="cls-1" d="M480.68,219.12c-.26,5.54-2.34,10.55-4.61,15.51-3.6,7.9-8.2,15.27-12.53,22.79-8.8,15.28-17.38,30.68-24.8,46.67-.27.59-.47,1.2-.7,1.8a12.48,12.48,0,0,0-1.53,3c-2.29,4-3.77,8.37-5.58,12.58-.95,2.2-1.83,4.42-2.73,6.64-.39,1-.95,1.21-1.95.72-11.8-5.83-24.47-9.57-36.61-14.56-5.52-2.27-10.94-4.76-16.41-7.13-.67-.3-1.38-.52-2.08-.77a6.6,6.6,0,0,0-3.12-1.62c-4.32-2.55-8.68-5-12.95-7.65a155.37,155.37,0,0,1-15.62-10.67,54.63,54.63,0,0,1-5.83-5.55,16.76,16.76,0,0,1-4.82-9.12c.56-.68.5-1.56.78-2.33,2.16-3,5.35-4.22,8.83-4.82a52.64,52.64,0,0,1,12.85-.49c14.56,1.1,28.84,4,43.17,6.55,11.49,2,23,3.73,34.42,6.27,1.89.42,2.09.27,2.06-1.73a45.39,45.39,0,0,1,4.36-20c6.9-14.82,16.41-27.73,29.73-37.71a28.35,28.35,0,0,1,6.61-3.57c3.78-1.51,5.73-1,8.44,2C480.27,216.93,480.47,218,480.68,219.12Z" transform="translate(-150.99 -70.73)"/><path class="cls-1" d="M301.79,343.07c-1.16,1.7-1.46,3.74-2.26,5.59a191.78,191.78,0,0,1-10.8,20.88C279.86,384.78,271,400,263.33,415.9c-3.75,7.72-7.14,15.59-10.44,23.5-.85,2-1.87,4-2.7,6-.54,1.31-1.21,1.29-2.37.73a241.11,241.11,0,0,0-25.69-10.38,254.82,254.82,0,0,1-33.6-14.58c-10.43-5.42-20.44-11.54-29.27-19.37a36.32,36.32,0,0,1-6.1-6.42c-4.19-6.09-2.21-11.11,5.09-12.8a51.15,51.15,0,0,1,15.62-.91c14.58,1.12,28.84,4.16,43.21,6.62,11.23,1.92,22.49,3.73,33.64,6.1,2,.43,2.24.27,2.26-1.54.11-9.81,3.16-18.81,7.81-27.34a95.11,95.11,0,0,1,19.1-24.72A55.51,55.51,0,0,1,291,332.52a16.48,16.48,0,0,1,4.69-1.79c3.58-.65,6.32,1.39,6.64,5,.11,1.27,0,2.57,0,3.85C302.13,340.71,301.57,341.82,301.79,343.07Z" transform="translate(-150.99 -70.73)"/><path class="cls-2" d="M436.51,308.86a12.48,12.48,0,0,1,1.53-3c8.8,11.31,17.49,22.71,26.44,33.9,11.16,13.93,21.82,28.23,33,42.15,10.36,12.91,20.32,26.12,30.56,39.12,1.6,2,3.51,3.82,4.88,6a9.53,9.53,0,0,1-4.82-.9,7.48,7.48,0,0,0-1.54-2.27c-8.66-11.18-17.19-22.47-26-33.51-10.65-13.27-20.79-26.92-31.45-40.18-10.49-13-20.56-26.39-30.86-39.57C437.7,310,437.32,309.24,436.51,308.86Z" transform="translate(-150.99 -70.73)"/><path class="cls-3" d="M301.79,343.07c-.22-1.25.34-2.36.62-3.53,8-4.19,16-8.35,24-12.57q19.52-10.32,39-20.68c.9-.48,1.75-1.05,2.63-1.57a6.6,6.6,0,0,1,3.12,1.62q-13.59,7.44-27.36,14.57c-7.27,3.78-14.47,7.69-21.72,11.52Q311.95,337.77,301.79,343.07Z" transform="translate(-150.99 -70.73)"/><path class="cls-3" d="M480.68,219.12c-.21-1.09-.41-2.19-.62-3.28,1.71-1.68,3.43-3.36,5.12-5.06Q502.6,193.34,520,175.87a8.89,8.89,0,0,1,2.77,1.11c-8.13,8.32-16.22,16.68-24.6,24.76-4.93,4.75-9.65,9.7-14.47,14.54C482.72,217.26,481.68,218.18,480.68,219.12Z" transform="translate(-150.99 -70.73)"/><path class="cls-3" d="M329.59,269.4c-.28.77-.22,1.65-.78,2.33Q306.43,266.55,284,261.4c-1.73-.4-3.47-.74-5.21-1.1a3.6,3.6,0,0,1,1.11-2.38l46.93,10.81C327.78,268.94,328.68,269.17,329.59,269.4Z" transform="translate(-150.99 -70.73)"/></svg>