<svg width="228" height="102" viewBox="0 0 228 102" fill="none" xmlns="http://www.w3.org/2000/svg">
<g clip-path="url(#clip0_133_82)">
<path d="M0.448588 102H0.010849V76.9359C0.148123 76.8426 0.272969 76.7282 0.381712 76.596C0.953205 75.8567 1.52926 75.1243 2.10075 74.3867C3.4089 72.6951 4.71706 71.0036 6.02521 69.312C6.90829 68.1767 7.79896 67.0483 8.68052 65.913C9.94358 64.2849 11.1975 62.6483 12.4606 61.0219C13.3801 59.8323 14.3103 58.6698 15.2284 57.4869C16.455 55.9047 17.6709 54.3123 18.899 52.7284C19.852 51.4996 20.8217 50.2845 21.7762 49.0575C23.0935 47.3693 24.4032 45.6795 25.7052 43.9879C26.3254 43.1874 26.9485 42.3938 27.5687 41.595C28.8322 39.9646 30.0973 38.3348 31.3639 36.7056C32.054 35.8134 32.7319 34.9126 33.425 34.0238C34.2123 33.0041 35.0118 32.0082 35.7961 30.9919C35.9708 30.7659 36.1 30.822 36.2232 31.0208C36.4314 31.3607 36.6335 31.7006 36.8448 32.0218C37.6048 33.2114 38.3465 34.4164 39.1065 35.6026C39.9865 36.9724 40.8696 38.3388 41.7435 39.712C42.8186 41.4024 43.8968 43.09 44.9779 44.7748C46.0926 46.5116 47.2031 48.248 48.3096 49.9837C49.3867 51.6707 50.4644 53.3583 51.5425 55.0465C52.6967 56.8479 53.8518 58.6483 55.008 60.4475C55.2846 60.8791 55.2907 60.8842 54.8924 61.1782C53.7723 62.0127 52.6445 62.837 51.5258 63.6731C49.7399 65.0055 47.96 66.3464 46.1741 67.6788C44.677 68.7988 43.1738 69.9085 41.6767 71.0302C39.8938 72.3643 38.117 73.7103 36.3341 75.0461C34.5512 76.3819 32.7592 77.7024 30.9748 79.0382C28.9503 80.5524 26.9318 82.0786 24.9058 83.5928C23.1214 84.9286 21.3294 86.2491 19.5465 87.5832C17.5068 89.1128 15.4731 90.6508 13.4333 92.1718C11.6489 93.5059 9.85695 94.8281 8.07255 96.1605C5.65282 97.9733 3.23462 99.7861 0.817931 101.599C0.661379 101.708 0.488107 101.776 0.448588 102Z" fill="#FEFEFE"/>
<path d="M145.989 102H82.3498C82.447 100.81 82.5291 99.6054 82.6431 98.4124C82.9775 94.9301 83.3271 91.4445 83.666 87.9656C83.8803 85.7801 84.1022 83.5962 84.2892 81.4056C84.5552 78.304 84.9215 75.2143 85.1875 72.1128C85.4079 69.538 85.7073 66.9752 85.9216 64.3988C86.1906 61.1697 86.5812 57.9645 86.8472 54.7389C86.9095 53.9894 86.9992 53.2416 87.0722 52.4922C87.1026 52.2117 87.1816 52.1777 87.3838 52.3443C87.6756 52.5856 87.9629 52.8354 88.2516 53.0819C89.7716 54.3701 91.295 55.6583 92.8221 56.9465C94.0274 57.9662 95.2357 58.974 96.441 59.992C97.9792 61.2904 99.5163 62.5934 101.052 63.9008L104.67 66.9514L109.151 70.743C110.367 71.7712 111.596 72.7926 112.817 73.8225C114.385 75.1447 115.952 76.4691 117.518 77.7959C118.692 78.7884 119.869 79.7803 121.047 80.7717C122.557 82.0463 124.065 83.3232 125.57 84.6023C126.786 85.6322 128.015 86.6553 129.233 87.6852C130.772 88.9836 132.309 90.2865 133.845 91.594C135.312 92.8329 136.783 94.0617 138.253 95.3006C139.806 96.6103 141.358 97.9235 142.908 99.24C143.893 100.076 144.877 100.915 145.858 101.757C145.924 101.803 146.08 101.828 145.989 102Z" fill="#FEFEFE"/>
<path d="M228 1.0078V53.828C227.874 53.8507 227.745 53.8324 227.628 53.7753C226.761 53.5475 225.895 53.3147 225.027 53.0853C220.495 51.8877 215.963 50.6896 211.431 49.4909C207.219 48.376 203.008 47.2566 198.798 46.1327C194.533 44.9997 190.266 43.8729 185.998 42.7524C181.412 41.5412 176.828 40.3283 172.244 39.1138C172.068 39.0679 171.855 39.0781 171.726 38.8843C171.825 38.7241 171.961 38.5976 172.12 38.5189C174.045 37.2171 175.977 35.917 177.915 34.6186C180.52 32.8693 183.125 31.1211 185.728 29.374C188.594 27.4417 191.452 25.4958 194.318 23.5634C196.654 21.9897 198.998 20.4296 201.334 18.8541C204.463 16.7445 207.591 14.6315 210.718 12.515C213.055 10.9413 215.4 9.38289 217.736 7.80916C221.101 5.54317 224.465 3.27435 227.827 1.0027C227.891 0.961913 227.945 0.907529 228 1.0078Z" fill="#FEFEFE"/>
<path d="M58.2923 102H0.994033C0.921076 101.82 1.07763 101.811 1.14603 101.757C2.55348 100.704 3.96245 99.6524 5.37295 98.601L10.948 94.422C12.3666 93.3581 13.7888 92.2959 15.2145 91.2354C16.9979 89.8996 18.7797 88.5621 20.5601 87.2229C22.0572 86.103 23.5604 84.9949 25.0575 83.8766C26.9179 82.4865 28.7763 81.0929 30.6326 79.6959C32.0538 78.6337 33.4795 77.5766 34.8991 76.511C36.6835 75.1752 38.4572 73.836 40.2401 72.4951C41.7373 71.3752 43.2405 70.2654 44.7376 69.1455C46.5828 67.7677 48.4254 66.3855 50.2656 64.9987C51.4891 64.0793 52.6975 63.1412 53.9332 62.2387C54.4119 61.8869 54.8451 61.4519 55.3589 61.1986C55.4106 61.2362 55.4515 61.2898 55.4766 61.3528C55.5017 61.4159 55.5099 61.4857 55.5002 61.5538C55.602 63.7513 55.8133 65.9385 55.9638 68.1326C56.0991 70.1227 56.2678 72.1111 56.359 74.1063C56.4426 75.9553 56.631 77.7993 56.7648 79.6466C56.9289 81.9409 57.0809 84.2352 57.2451 86.5312C57.3971 88.6845 57.5704 90.8344 57.7223 92.9893C57.8743 95.1443 58.0263 97.2941 58.1525 99.4474C58.2026 100.297 58.347 101.142 58.2923 102Z" fill="#FEFEFE"/>
<path d="M228 54.8018V101.997H203.178C203.143 101.881 203.101 101.767 203.053 101.657C202.087 99.7476 201.118 97.8396 200.147 95.9328C199.529 94.7143 198.905 93.4974 198.293 92.2738C197.361 90.4129 196.442 88.5451 195.507 86.6859C194.812 85.3042 194.099 83.9344 193.4 82.5544C193.139 82.0446 193.151 82.0446 193.598 81.6962C194.839 80.7365 196.078 79.7735 197.314 78.807C199.116 77.3942 200.915 75.978 202.713 74.5583C204.187 73.401 205.666 72.2555 207.14 71.0982C208.926 69.6978 210.706 68.2889 212.494 66.8885C213.982 65.721 215.477 64.5636 216.967 63.3978C218.769 61.9872 220.57 60.5738 222.367 59.1575C223.632 58.1633 224.889 57.1572 226.167 56.1817C226.773 55.7229 227.345 55.1926 228 54.8018Z" fill="#FEFEFE"/>
<path d="M172.232 102H146.646C146.593 101.83 146.539 101.66 146.494 101.49C145.912 99.5845 145.351 97.6714 144.811 95.751C144.281 93.8696 143.705 92.0121 143.173 90.124C142.477 87.6614 141.729 85.2175 141.007 82.7652C140.812 82.1075 140.641 81.443 140.437 80.7904C140.346 80.5032 140.416 80.3706 140.669 80.3179C140.74 80.296 140.808 80.2682 140.875 80.2346C142.882 79.5072 144.889 78.7799 146.897 78.0525C150.322 76.8119 153.749 75.5729 157.177 74.3357L168.232 70.3283L177.774 66.8681L183.487 64.8033C183.62 64.7557 183.767 64.6418 183.887 64.8033C183.981 64.9256 183.905 65.0718 183.867 65.206C183.855 65.2434 183.838 65.2808 183.826 65.3199C183.407 66.705 182.945 68.0748 182.521 69.4599C181.978 71.229 181.388 72.9812 180.849 74.7504C180.327 76.4414 179.768 78.1171 179.244 79.8081C178.695 81.5755 178.11 83.3277 177.572 85.0969C177.052 86.7879 176.493 88.4636 175.973 90.1563C175.43 91.9254 174.834 93.6742 174.301 95.4468C173.871 96.8726 173.375 98.2747 172.933 99.6955C172.67 100.453 172.459 101.23 172.232 102Z" fill="#FEFEFE"/>
<path d="M146.536 0.0305939H178.575C178.727 0.154657 178.575 0.251528 178.531 0.324606C178.291 0.681499 178.034 1.0248 177.788 1.37829C176.516 3.20694 175.244 5.03673 173.973 6.86764C173.325 7.79726 172.667 8.71839 172.018 9.64971C171.047 11.045 170.085 12.4471 169.112 13.8423C168.452 14.789 167.78 15.7254 167.121 16.6703C165.811 18.5465 164.505 20.425 163.204 22.3058C163.016 22.5784 162.753 22.7743 162.456 22.8632C159.048 24.0325 155.642 25.2085 152.238 26.3914C148.536 27.6705 144.834 28.9491 141.131 30.2271C138.003 31.308 134.876 32.3917 131.75 33.4783C130.43 33.9337 129.106 34.3739 127.782 34.8226L127.63 34.6917C127.864 33.9558 128.318 33.3593 128.674 32.7033C129.747 30.7234 130.848 28.7622 131.919 26.7806C132.991 24.799 134.094 22.7936 135.199 20.812C136.304 18.8304 137.4 16.8419 138.479 14.8417C139.172 13.5551 139.897 12.2924 140.607 11.0127C140.911 10.4604 141.224 9.90973 141.519 9.354C142.445 7.65451 143.363 5.95502 144.291 4.25553C144.995 2.97411 145.713 1.70629 146.419 0.426575C146.465 0.374985 146.499 0.312456 146.519 0.243805C146.539 0.175153 146.545 0.10221 146.536 0.0305939Z" fill="#FEFEFE"/>
<path d="M127.782 34.8225C129.106 34.3739 130.429 33.9337 131.75 33.4782C134.878 32.3974 138.005 31.3137 141.131 30.2271C144.832 28.9457 148.534 27.6671 152.237 26.3914C155.644 25.2153 159.05 24.0393 162.456 22.8632C162.753 22.7743 163.016 22.5784 163.204 22.3058C164.502 20.4216 165.807 18.5431 167.121 16.6703C167.78 15.7254 168.452 14.789 169.112 13.8423C170.084 12.4471 171.047 11.045 172.018 9.6497C172.667 8.71838 173.325 7.79726 173.972 6.86764C175.246 5.03899 176.518 3.2092 177.787 1.37828C178.034 1.02479 178.29 0.681493 178.531 0.3246C178.579 0.251522 178.719 0.154651 178.575 0.0305879H179.231C178.598 0.946613 177.97 1.86774 177.333 2.78036C176.672 3.72528 176.001 4.6617 175.34 5.60661C174.029 7.47945 172.719 9.35342 171.411 11.2285C170.803 12.0936 170.195 12.9535 169.587 13.8202C168.304 15.6636 167.02 17.5087 165.737 19.3555C165.129 20.2375 164.5 21.1128 163.883 21.9931C163.819 22.0832 163.731 22.1732 163.801 22.3211C163.958 22.3354 164.115 22.3032 164.257 22.2276C165.98 21.6362 167.702 21.0419 169.425 20.4449C172.829 19.2654 176.234 18.086 179.639 16.9065L189.907 13.3614L200.906 9.55793C205.161 8.08504 209.417 6.61668 213.673 5.15285C217.704 3.76153 221.734 2.36682 225.764 0.968706C226.509 0.708684 227.272 0.508145 227.989 0.152951V1.0027C227.934 0.902426 227.875 0.95681 227.816 1.0027C224.453 3.26868 221.089 5.5375 217.725 7.80915C215.389 9.38288 213.044 10.9413 210.708 12.515C207.579 14.6235 204.451 16.7366 201.324 18.8541C198.987 20.4296 196.644 21.9897 194.308 23.5634C191.441 25.4957 188.583 27.4417 185.717 29.374C183.117 31.1279 180.513 32.8761 177.904 34.6186C175.972 35.917 174.04 37.2171 172.109 38.5189C171.95 38.5976 171.814 38.7241 171.715 38.8843C171.844 39.0781 172.057 39.0679 172.234 39.1138C176.818 40.3306 181.402 41.5435 185.987 42.7524C190.254 43.8797 194.521 45.0065 198.787 46.1327C202.999 47.2475 207.21 48.3669 211.42 49.4908C215.951 50.693 220.483 51.8911 225.016 53.0853C225.884 53.3147 226.75 53.5475 227.617 53.7753C227.734 53.8324 227.863 53.8507 227.989 53.8279V54.8018C227.334 55.1892 226.763 55.7195 226.153 56.1851C224.878 57.1606 223.621 58.1667 222.353 59.1609C220.554 60.5749 218.754 61.9883 216.953 63.4012C215.463 64.567 213.968 65.7244 212.48 66.8919C210.692 68.2923 208.913 69.7012 207.127 71.1016C205.652 72.2589 204.173 73.4044 202.699 74.5617C200.898 75.9734 199.099 77.3897 197.3 78.8104C196.065 79.7792 194.826 80.7422 193.584 81.6996C193.137 82.0395 193.128 82.0395 193.386 82.5578C194.086 83.9378 194.798 85.3076 195.493 86.6893C196.428 88.5485 197.347 90.4163 198.279 92.2772C198.887 93.5008 199.515 94.7177 200.133 95.9362C201.103 97.8453 202.072 99.7533 203.04 101.66C203.087 101.77 203.129 101.884 203.164 102H202.617C202.445 101.513 202.236 101.043 201.992 100.596C201.296 99.2366 200.603 97.877 199.911 96.5174C198.848 94.4135 197.787 92.3067 196.729 90.197C196.141 89.0295 195.548 87.8636 194.961 86.6927C194.002 84.7791 193.051 82.8603 192.088 80.9484C191.42 79.6211 190.734 78.3023 190.065 76.975C189.011 74.888 187.96 72.7982 186.913 70.7056C186.266 69.4123 185.63 68.1105 184.977 66.8188C184.763 66.3569 184.511 65.9177 184.226 65.5068C184.133 65.7805 184.074 65.9453 184.018 66.1136C183.505 67.6788 183.013 69.2525 182.528 70.8296C181.981 72.6175 181.393 74.3901 180.842 76.1779C180.315 77.8876 179.756 79.5769 179.231 81.2968C178.69 83.066 178.105 84.8164 177.559 86.5856C177.038 88.2749 176.482 89.9523 175.96 91.6433C175.41 93.4312 174.811 95.1986 174.272 96.9899C173.837 98.4361 173.343 99.8586 172.875 101.291C172.781 101.511 172.744 101.756 172.766 101.998H172.218C172.445 101.228 172.656 100.452 172.899 99.687C173.355 98.2696 173.845 96.8675 174.267 95.4382C174.801 93.6657 175.397 91.9169 175.939 90.1477C176.459 88.4482 177.018 86.7794 177.538 85.0884C178.082 83.3192 178.667 81.567 179.21 79.7995C179.734 78.1086 180.294 76.4329 180.815 74.7419C181.361 72.9727 181.95 71.2205 182.487 69.4514C182.911 68.0663 183.373 66.6965 183.793 65.3114C183.805 65.2723 183.822 65.2349 183.834 65.1975C183.872 65.0633 183.948 64.9171 183.853 64.7947C183.733 64.635 183.586 64.7489 183.454 64.7947L177.774 66.8681L168.226 70.3334L157.171 74.3459C153.743 75.5865 150.316 76.8254 146.89 78.0627C144.882 78.7889 142.875 79.5163 140.868 80.2448C140.802 80.2783 140.733 80.3062 140.663 80.3281C140.409 80.3808 140.339 80.5133 140.431 80.8006C140.634 81.4532 140.806 82.1177 141.001 82.7754C141.723 85.2277 142.47 87.6716 143.166 90.1341C143.698 92.0155 144.274 93.873 144.805 95.7612C145.346 97.6816 145.907 99.5946 146.488 101.5C146.539 101.67 146.592 101.84 146.639 102.01H145.983C146.074 101.84 145.918 101.813 145.849 101.754C144.867 100.912 143.884 100.073 142.899 99.2366C141.349 97.9223 139.797 96.6092 138.243 95.2972C136.777 94.0583 135.305 92.8295 133.836 91.5906C132.297 90.2922 130.76 88.9893 129.224 87.6818C128.008 86.6519 126.782 85.6288 125.561 84.5989C124.052 83.3243 122.545 82.0474 121.038 80.7683C119.863 79.7746 118.687 78.7827 117.509 77.7924C115.94 76.4691 114.373 75.1446 112.807 73.819C111.591 72.7892 110.362 71.7678 109.141 70.7396L104.67 66.9446L101.052 63.894C99.5161 62.5945 97.979 61.2915 96.4408 59.9852C95.2355 58.9655 94.0271 57.956 92.8218 56.9397C91.3019 55.6526 89.7785 54.3644 88.2514 53.0751C87.9626 52.8286 87.6754 52.5788 87.3835 52.3375C87.1814 52.1675 87.1024 52.2049 87.072 52.4853C86.9914 53.2348 86.9093 53.9826 86.847 54.7321C86.581 57.9611 86.1904 61.168 85.9214 64.392C85.7071 66.9684 85.4076 69.5312 85.1872 72.106C84.9213 75.2075 84.555 78.2972 84.289 81.3988C84.102 83.5894 83.8801 85.7732 83.6658 87.9588C83.3269 91.441 82.9773 94.9267 82.6429 98.4056C82.5289 99.5952 82.4468 100.797 82.3495 101.993H81.4741C81.5349 101.91 81.4862 101.847 81.4452 101.782C80.666 100.557 79.8867 99.3306 79.1075 98.1047C78.0294 96.4155 76.9512 94.7279 75.8731 93.042C74.7585 91.3051 73.6474 89.5688 72.5399 87.833C71.4608 86.1471 70.3831 84.4595 69.307 82.7703C68.1924 81.0345 67.0818 79.2988 65.9753 77.563C64.9063 75.8919 63.8388 74.2213 62.7728 72.5512C61.5219 70.6019 60.2619 68.6611 59.011 66.7101C58.3544 65.6904 57.7115 64.6503 57.0579 63.6238C56.8147 63.2431 56.5579 62.8726 56.3101 62.4953C56.263 62.4223 56.2174 62.3798 56.1323 62.4121C56.0984 62.4255 56.0696 62.4512 56.0503 62.4851C56.0311 62.519 56.0225 62.5591 56.0259 62.599C56.0206 62.66 56.0206 62.7215 56.0259 62.7826C56.2037 64.6673 56.2919 66.5571 56.4059 68.447C56.5107 70.2144 56.6597 71.9802 56.798 73.7443C56.9667 75.9162 57.102 78.0899 57.2433 80.2635C57.3847 82.5391 57.5716 84.8096 57.7571 87.0819C57.8772 88.5621 57.9334 90.0475 58.0322 91.5294C58.2222 94.3523 58.4411 97.1734 58.6675 99.9929C58.7207 100.659 58.7086 101.334 58.8362 101.993H58.2891C58.3438 101.135 58.1994 100.294 58.1492 99.4439C58.0215 97.289 57.8711 95.1357 57.7191 92.9859C57.5671 90.836 57.3969 88.6828 57.2418 86.5278C57.0777 84.2335 56.9257 81.9392 56.7615 79.6432C56.6278 77.7959 56.4393 75.9519 56.3557 74.1029C56.2645 72.1077 56.0958 70.1193 55.9605 68.1292C55.8085 65.9351 55.5988 63.7479 55.4969 61.5504C55.5066 61.4823 55.4984 61.4125 55.4733 61.3494C55.4482 61.2864 55.4073 61.2328 55.3556 61.1952C54.8434 61.4485 54.4087 61.8835 53.9299 62.2353C52.6972 63.1377 51.4859 64.0759 50.2623 64.9953C48.4242 66.3832 46.5831 67.7666 44.7389 69.1454C43.2418 70.2654 41.7385 71.3752 40.2414 72.4951C38.457 73.836 36.6833 75.1752 34.8943 76.511C33.4747 77.5766 32.049 78.6337 30.6279 79.6959C28.7695 81.0872 26.9111 82.4808 25.0528 83.8766C23.5556 84.9949 22.0524 86.103 20.5553 87.2229C18.7709 88.5576 16.989 89.8951 15.2097 91.2354C13.7911 92.2993 12.369 93.3615 10.9433 94.422L5.37273 98.601C3.96426 99.6524 2.55681 100.704 1.15037 101.757C1.07741 101.811 0.920856 101.82 0.998372 102H0.448158C0.487676 101.776 0.660948 101.708 0.812941 101.601C3.23165 99.7878 5.64986 97.975 8.06756 96.1622C9.85196 94.8298 11.644 93.5076 13.4284 92.1735C15.4681 90.644 17.5018 89.1144 19.5415 87.5849C21.3244 86.2508 23.1164 84.9303 24.9008 83.5945C26.9268 82.0803 28.9453 80.5541 30.9699 79.0399C32.7542 77.7041 34.5447 76.3819 36.3291 75.0478C38.1135 73.7137 39.8888 72.366 41.6717 71.0319C43.1688 69.9102 44.672 68.8005 46.1691 67.6805C47.9551 66.3481 49.7349 65.0072 51.5208 63.6748C52.6395 62.8386 53.7673 62.0144 54.8875 61.1799C55.2857 60.8859 55.2796 60.8808 55.003 60.4492C53.8478 58.6488 52.6927 56.8485 51.5375 55.0482C50.4584 53.3623 49.3808 51.6747 48.3046 49.9854C47.19 48.2485 46.0795 46.5122 44.973 44.7765C43.8938 43.0883 42.8157 41.4007 41.7386 39.7137C40.8646 38.3405 39.9815 36.9741 39.1015 35.6043C38.3415 34.4147 37.5983 33.2148 36.8398 32.0235C36.6285 31.6938 36.4264 31.3556 36.2182 31.0225C36.089 30.8168 35.9659 30.7676 35.7911 30.9936C35.0068 32.0133 34.2073 33.0126 33.42 34.0255C32.7284 34.9143 32.052 35.815 31.359 36.7073C30.0974 38.3365 28.8323 39.9646 27.5637 41.5916C26.9436 42.3904 26.3204 43.184 25.7003 43.9845C24.3901 45.6738 23.0804 47.3636 21.7712 49.0541C20.8167 50.2811 19.847 51.4962 18.894 52.725C17.6659 54.3055 16.45 55.8979 15.2234 57.4835C14.3114 58.6732 13.3752 59.8356 12.4556 61.0185C11.1925 62.6449 9.93859 64.2815 8.67553 65.9096C7.79397 67.0466 6.9033 68.175 6.02022 69.3086C4.71004 70.9979 3.40189 72.6895 2.09576 74.3833C1.52427 75.1208 0.948215 75.8533 0.376721 76.5926C0.267979 76.7248 0.143133 76.8392 0.00585852 76.9325V76.1983C0.246007 76.1983 0.349362 75.9706 0.461837 75.8024C0.645749 75.5219 0.861579 75.2772 1.06981 75.0172C1.95745 73.8853 2.84661 72.7569 3.72968 71.6182C5.03885 69.9346 6.3465 68.2464 7.65262 66.5537C8.53418 65.4168 9.42638 64.29 10.3079 63.1547C11.5573 61.5419 12.7991 59.9257 14.0485 58.3095C14.9787 57.1114 15.921 55.9302 16.8512 54.7287C18.1508 53.0564 19.4351 51.3756 20.7407 49.7033C21.6344 48.551 22.5388 47.4107 23.4325 46.2584C24.6697 44.6609 25.8994 43.0549 27.1366 41.4574C27.8038 40.5974 28.4832 39.7494 29.152 38.8894C30.4632 37.2013 31.7734 35.512 33.0826 33.8215C33.6054 33.1418 34.1161 32.462 34.6329 31.7686C34.4264 31.8308 34.2335 31.9396 34.0659 32.0881C32.657 33.3763 31.1781 34.5523 29.7311 35.7879C28.5152 36.8279 27.2886 37.8408 26.0696 38.8707C24.5162 40.1805 22.9644 41.493 21.4141 42.8084C20.224 43.8128 19.0293 44.8104 17.8392 45.8148C16.301 47.1133 14.7639 48.4162 13.2277 49.7237L9.61333 52.7624L5.04442 56.6287C3.81176 57.6722 2.58974 58.7293 1.3434 59.7524C0.907176 60.111 0.528714 60.5664 0.0104183 60.7958V60.1857C0.162411 60.388 0.267286 60.1857 0.363042 60.1093C0.949734 59.63 1.53035 59.1389 2.11096 58.6477C3.92272 57.1148 5.73447 55.5812 7.54623 54.0472C8.75001 53.0275 9.95531 52.0118 11.1621 51C12.6821 49.7129 14.2045 48.4253 15.7295 47.1371C16.9348 46.1191 18.1401 45.1147 19.3561 44.095C20.876 42.8079 22.3959 41.5191 23.9159 40.2286C25.1318 39.1987 26.3569 38.1756 27.5759 37.1457C29.0836 35.8711 30.5909 34.5948 32.0976 33.3168C33.1418 32.4331 34.1799 31.5425 35.2333 30.6724C35.3279 30.6142 35.3983 30.5167 35.4293 30.401C35.4603 30.2853 35.4494 30.1606 35.3989 30.0538C35.26 29.6559 35.1392 29.2503 35.0372 28.8386C34.68 27.3091 34.1906 25.8119 33.8 24.2874C33.7224 23.9849 33.6282 23.8778 33.3045 23.9577C31.3514 24.4421 29.3906 24.889 27.4315 25.3462L14.6641 28.3322C10.3383 29.3451 6.01262 30.3603 1.6869 31.3777C1.12605 31.5102 0.548473 31.5748 0.0149781 31.8212V31.3318C0.150252 31.5357 0.318964 31.3981 0.455758 31.3641C5.19186 30.2504 9.92745 29.1361 14.6625 28.0212C20.5903 26.6276 26.518 25.2352 32.4457 23.8438C32.8105 23.7589 33.2057 23.747 33.5476 23.5243C33.4489 23.0961 33.3759 22.6746 33.2589 22.2752C32.4006 19.3124 31.5768 16.34 30.7875 13.358C30.5473 12.4624 30.5382 12.4726 29.7448 12.1564C26.8721 11.0155 23.9959 9.86554 21.1162 8.70648C17.9851 7.45113 14.8546 6.19181 11.7245 4.92852C8.52506 3.6471 5.32865 2.34529 2.12464 1.07238C1.42091 0.793659 0.744544 0.440165 0.0104183 0.275314C0.0529763 0.198837 -0.0990166 0.0186915 0.119853 0.0288884C0.302245 0.0373859 0.484636 0.0288884 0.667028 0.0288884C0.638149 0.248123 0.812941 0.215832 0.910216 0.248123C6.33636 2.42913 11.764 4.60448 17.1932 6.77416C22.1056 8.74217 27.017 10.7136 31.9274 12.6884C37.1144 14.7708 42.3019 16.8504 47.49 18.9272C47.7012 19.0122 47.914 19.1481 48.1952 19.1125C48.1412 18.7881 48.0635 18.4692 47.9627 18.159C47.4033 16.5683 46.8987 14.9555 46.3911 13.3461C45.8317 11.582 45.2389 9.83325 44.6842 8.06578C43.9789 5.80376 43.2083 3.56043 42.4727 1.3069C42.3359 0.887131 42.2295 0.45716 42.1094 0.0305879H42.5471C42.7447 0.854841 43.0518 1.63831 43.3071 2.44386C43.8816 4.28441 44.5003 6.11136 45.0778 7.95191C45.5657 9.50525 46.0886 11.0433 46.5689 12.6017C47.2088 14.6768 47.8988 16.7332 48.5737 18.7947C48.7439 19.3198 48.7545 19.3215 49.2242 19.1872C52.1151 18.3636 55.003 17.5376 57.8878 16.7094C62.3625 15.4314 66.8376 14.1528 71.3133 12.8736C75.8427 11.5832 80.3731 10.2955 84.9045 9.01069C89.667 7.6511 94.4239 6.29151 99.1752 4.93192C104.676 3.36272 110.176 1.79692 115.676 0.234527C115.799 0.198837 115.979 0.234527 116.028 0.0305879H117.012C117.057 0.253221 116.981 0.486051 117.063 0.710384C117.215 1.14035 117.306 1.59922 117.44 2.03769C117.896 3.50774 118.352 4.9727 118.775 6.45636C119.296 8.3258 119.872 10.1612 120.396 12.0222C120.933 13.9222 121.518 15.8036 122.053 17.7053C122.579 19.5645 123.151 21.4102 123.675 23.2711C124.353 25.6759 125.081 28.062 125.786 30.4566C125.894 30.8236 125.988 31.1958 126.09 31.5663C126.348 32.518 126.727 33.4273 126.909 34.4079C126.926 34.4996 126.962 34.6237 127.076 34.6084C127.143 34.5848 127.201 34.5362 127.239 34.4708C127.306 34.3736 127.366 34.2714 127.42 34.1648C127.83 33.3984 128.233 32.6353 128.65 31.8637C129.727 29.8855 130.802 27.9039 131.896 25.9376C133.01 23.9373 134.105 21.9217 135.207 19.9129C136.289 17.9364 137.383 15.9701 138.455 13.9868C139.541 11.9746 140.646 9.96581 141.761 7.96041C142.744 6.17934 143.736 4.40508 144.724 2.62401C145.153 1.84734 145.568 1.05878 145.987 0.275314C146.028 0.198837 146.117 0.105365 145.987 0.0305879H146.535C146.545 0.101025 146.54 0.173089 146.522 0.241373C146.503 0.309658 146.471 0.372392 146.428 0.42487C145.718 1.70119 145.001 2.9741 144.3 4.25382C143.372 5.95331 142.454 7.6528 141.528 9.35229C141.224 9.90802 140.92 10.4587 140.616 11.011C139.905 12.2873 139.18 13.5602 138.488 14.8399C137.402 16.8419 136.305 18.8326 135.197 20.812C134.09 22.7913 132.997 24.7808 131.917 26.7806C130.846 28.7622 129.745 30.7234 128.672 32.7033C128.317 33.3593 127.862 33.9558 127.628 34.6917C127.587 34.7325 127.558 34.7954 127.595 34.8361C127.631 34.8769 127.727 34.8667 127.782 34.8225ZM31.2298 12.7887C31.1872 12.7632 31.137 12.7343 31.099 12.7887C31.061 12.843 31.0899 12.8872 31.1264 12.928C31.3255 13.8338 31.6097 14.7142 31.8484 15.6081C32.3667 17.5557 32.9458 19.4813 33.4595 21.4323C33.8805 23.0315 34.3578 24.612 34.8138 26.1993C34.8973 26.4899 34.9657 26.7874 35.0341 27.0763C35.2986 28.0654 35.5965 29.0426 35.9051 30.1082L48.2347 19.7005C48.1549 19.5768 48.0395 19.4875 47.9079 19.4473C46.1965 18.7675 44.4856 18.0826 42.7751 17.3926C39.9004 16.2403 37.0268 15.0881 34.1541 13.9358C33.1874 13.5466 32.2056 13.1642 31.2298 12.7887ZM171.851 39.3143C171.788 39.2837 171.72 39.265 171.676 39.3313C171.664 39.35 171.711 39.418 171.73 39.4622C172.048 40.3306 172.522 41.1073 172.928 41.9213C174.016 44.1052 175.12 46.2788 176.216 48.4576C177.312 50.6363 178.401 52.7726 179.479 54.9394C180.459 56.9108 181.498 58.8482 182.467 60.8264C182.817 61.5385 183.207 62.2251 183.531 62.9559C183.688 63.3717 183.916 63.7489 184.203 64.0657C184.247 63.5558 184.274 63.1106 184.326 62.6755C184.551 60.7381 184.834 58.8074 185.003 56.8632C185.255 53.9639 185.724 51.0969 185.948 48.1958C186.063 46.6969 186.294 45.2081 186.472 43.716C186.533 43.2061 186.533 43.2061 186.085 43.0821C184.121 42.5586 182.157 42.0363 180.192 41.5151L171.851 39.3143ZM88.0903 50.9881C90.3408 50.0613 92.5918 49.1334 94.8434 48.2043C97.9997 46.8969 101.155 45.5865 104.308 44.2734L112.851 40.7266L121.597 37.088C123.166 36.4354 124.734 35.7811 126.309 35.1387C126.555 35.0401 126.666 34.95 126.566 34.6288C126.034 32.8987 125.537 31.155 125.046 29.4097C124.54 27.6269 124.002 25.8543 123.491 24.0733C122.901 22.0203 122.275 19.9792 121.699 17.9228C121.214 16.2233 120.702 14.5238 120.217 12.8243C119.652 10.8274 119.044 8.84584 118.478 6.84724C117.986 5.10357 117.436 3.38028 116.969 1.62641C116.904 1.38508 116.901 1.07068 116.665 0.905825C116.521 1.01042 116.404 1.1566 116.328 1.329C116.016 1.9969 115.606 2.59682 115.251 3.23583C114.165 5.18684 113.035 7.10726 111.92 9.04128L108.688 14.6938L105.384 20.4381L102.116 26.1382C101.017 28.054 99.9169 29.9699 98.8164 31.8858C97.7262 33.7847 96.6359 35.6836 95.5456 37.5825C94.4553 39.4814 93.367 41.3803 92.2807 43.2792C91.3034 44.9787 90.3048 46.6459 89.3473 48.3522C88.8913 49.1781 88.3593 49.9599 87.9581 50.8283C87.9186 50.8793 87.8471 50.9269 87.9125 50.9983C87.9778 51.0697 88.0325 51.017 88.0903 50.9881ZM87.3303 51.7393C87.4169 51.856 87.5108 51.9657 87.6115 52.0673C88.2484 52.6077 88.8913 53.1413 89.5312 53.6784C90.7532 54.7071 91.9737 55.7353 93.1927 56.763C94.7015 58.0376 96.2103 59.3133 97.7191 60.5902C98.935 61.6178 100.156 62.6449 101.382 63.6714C102.891 64.946 104.399 66.2229 105.905 67.502C107.121 68.5319 108.348 69.5533 109.567 70.5849C111.076 71.8595 112.583 73.1364 114.09 74.4156C115.306 75.4455 116.527 76.4725 117.752 77.4967C119.305 78.8087 120.857 80.1219 122.409 81.4362C123.599 82.4406 124.794 83.4399 125.984 84.446C127.491 85.7206 128.999 86.9974 130.507 88.2766C131.723 89.2963 132.951 90.3279 134.17 91.3561C135.709 92.6545 137.247 93.9546 138.783 95.2564C139.713 96.0416 140.646 96.8199 141.575 97.6051C142.808 98.6469 144.036 99.6972 145.272 100.736C145.393 100.838 145.528 101.05 145.691 100.934C145.854 100.819 145.732 100.595 145.691 100.425C145.425 99.325 145.054 98.2628 144.756 97.1734C144.246 95.304 143.665 93.4651 143.141 91.6025C142.601 89.6838 142.011 87.7803 141.469 85.8599C140.95 84.033 140.391 82.1992 139.871 80.357C139.33 78.4366 138.74 76.5348 138.199 74.6144C137.681 72.7722 137.116 70.9452 136.596 69.103C136.053 67.1842 135.463 65.2808 134.924 63.3604C134.406 61.5198 133.843 59.6912 133.32 57.8506C132.778 55.9319 132.191 54.0268 131.648 52.1064C131.129 50.2658 130.562 48.4406 130.046 46.5966C129.422 44.3635 128.745 42.149 128.093 39.9278C127.674 38.4968 127.253 37.0676 126.847 35.6332C126.774 35.3732 126.663 35.3069 126.45 35.3885C126.347 35.4276 126.245 35.4684 126.146 35.5125C124.12 36.3623 122.096 37.212 120.067 38.0618C115.547 39.9391 111.028 41.8143 106.507 43.6871C100.507 46.1797 94.5064 48.6723 88.5068 51.1648C88.1253 51.3331 87.7088 51.4283 87.3379 51.7427L87.3303 51.7393ZM116.183 0.418072C110.599 1.9901 105.022 3.59272 99.4411 5.17664C93.86 6.76057 88.2605 8.35469 82.6702 9.94711C77.0799 11.5395 71.4896 13.132 65.9024 14.7295C60.3151 16.327 54.7522 17.899 49.1695 19.4982C49.2196 19.6391 49.3135 19.755 49.434 19.8245C50.3459 20.595 51.2624 21.3643 52.1835 22.1325C53.7034 23.4184 55.2269 24.7066 56.7539 25.9971C57.9592 27.0168 59.1691 28.0263 60.3744 29.0426L64.9418 32.9106C66.1577 33.9405 67.3782 34.9687 68.6033 35.9952C70.0989 37.2585 71.593 38.5223 73.0856 39.7868C74.3015 40.8166 75.5235 41.8437 76.7516 42.8679C78.3202 44.1913 79.8867 45.5169 81.4513 46.8447C82.4088 47.6554 83.3603 48.4729 84.3163 49.2835C85.1148 49.9633 85.9153 50.6352 86.7178 51.2991C86.9792 51.5183 87.0431 51.5047 87.2513 51.2107C87.306 51.1294 87.3567 51.0449 87.4033 50.9575C88.1116 49.7033 88.8153 48.4457 89.5312 47.1965C90.1878 46.0477 90.8581 44.909 91.5071 43.7619C92.4768 42.0624 93.4374 40.3629 94.4071 38.6634C95.0744 37.4992 95.7553 36.3453 96.4226 35.1811C97.4333 33.4188 98.4365 31.6496 99.4457 29.8872C100.073 28.7911 100.712 27.7034 101.34 26.6072C102.35 24.8448 103.353 23.0774 104.364 21.315C104.992 20.2188 105.629 19.1295 106.258 18.035C107.297 16.2415 108.327 14.4479 109.35 12.6544C109.958 11.5922 110.566 10.5368 111.173 9.47465C112.194 7.69585 113.212 5.91479 114.229 4.13146C114.837 3.06928 115.444 2.01219 116.062 0.951711C116.119 0.880383 116.16 0.794569 116.181 0.701627C116.202 0.608684 116.203 0.511385 116.183 0.418072ZM81.886 101.59C81.93 101.237 81.9635 101.002 81.9878 100.766C82.2249 98.4379 82.4635 96.1112 82.6596 93.7795C82.8435 91.5702 83.146 89.3711 83.3132 87.1617C83.5655 83.8103 83.9865 80.4827 84.2631 77.1348C84.5519 73.6491 84.9441 70.1668 85.2769 66.6897C85.4958 64.4022 85.742 62.1164 85.9335 59.8254C86.1418 57.3527 86.4093 54.885 86.6722 52.4174C86.71 52.2216 86.6913 52.0175 86.619 51.8344C86.5466 51.6512 86.4243 51.4983 86.2694 51.3977C85.3028 50.6346 84.371 49.8205 83.4272 49.0184C81.9184 47.7438 80.4101 46.4669 78.9023 45.1877C77.6864 44.1578 76.4598 43.1348 75.2408 42.1049C73.73 40.8302 72.2212 39.5539 70.7145 38.2759C69.4985 37.246 68.2704 36.2246 67.0499 35.1964C65.4966 33.8844 63.9447 32.5707 62.3944 31.2553L58.821 28.2438C57.2829 26.9443 55.7447 25.6413 54.2065 24.335C52.9734 23.2915 51.7422 22.2458 50.5131 21.1977C50.0571 20.817 49.6103 20.4432 49.1558 20.0676C49.0722 19.9979 48.981 19.8976 48.8655 19.986C48.75 20.0744 48.8001 20.2035 48.8123 20.3259C48.8123 20.3667 48.8275 20.4058 48.8321 20.4466C49.1041 22.4384 49.5191 24.3996 49.8398 26.3829C50.3687 29.6663 50.9736 32.9361 51.5117 36.2195C52.0269 39.3619 52.5939 42.494 53.1107 45.6364C53.6502 48.9198 54.2673 52.1862 54.7826 55.4747C55.0258 57.04 55.3905 58.5797 55.5805 60.1551C55.6204 60.5214 55.7393 60.8714 55.9271 61.1748C56.7995 62.5514 57.6826 63.9212 58.5611 65.2927C59.1691 66.2342 59.7735 67.1763 60.3744 68.1189C61.3776 69.6915 62.3797 71.2647 63.3808 72.8384C64.0116 73.836 64.65 74.8217 65.2883 75.8142C66.2489 77.32 67.2004 78.8342 68.1625 80.3383C68.8282 81.3818 69.5077 82.4134 70.1749 83.4552C71.2226 85.0867 72.2689 86.7255 73.3136 88.3718C73.9215 89.315 74.5295 90.2548 75.1253 91.198C76.4051 93.2 77.6834 95.2026 78.9601 97.2057C79.6441 98.2832 80.3159 99.3709 81.009 100.435C81.2491 100.814 81.4573 101.225 81.886 101.59ZM183.736 64.3716C183.163 63.2329 182.631 62.1724 182.096 61.1137C181.47 59.8747 180.839 58.6392 180.215 57.3986C179.209 55.3988 178.204 53.3968 177.201 51.3926C176.568 50.135 175.924 48.8841 175.292 47.6265C174.295 45.6438 173.3 43.661 172.308 41.6783C171.951 40.9679 171.58 40.2677 171.223 39.559C170.99 39.0968 170.995 39.0866 170.527 39.1494C168.124 39.4746 165.721 39.8015 163.316 40.1301C160.783 40.47 158.25 40.8098 155.717 41.1497C155.591 41.1555 155.47 41.2047 155.37 41.2905C155.271 41.3763 155.197 41.4946 155.16 41.629C154.972 42.1575 154.789 42.6895 154.592 43.2129C154.06 44.6167 153.516 46.0137 152.994 47.4226C152.452 48.8875 151.873 50.3355 151.322 51.7987C150.79 53.2246 150.23 54.6369 149.698 56.0628C149.152 57.526 148.577 58.9757 148.026 60.439C147.5 61.8444 146.948 63.2397 146.424 64.6469C145.88 66.1102 145.3 67.5581 144.752 69.0231C144.22 70.449 143.659 71.8595 143.128 73.2871C142.423 75.182 141.675 77.06 140.946 78.9447C140.809 79.2793 140.707 79.6307 140.642 79.9916L183.736 64.3716ZM140.222 79.6143C140.289 79.5854 140.336 79.4766 140.374 79.3696C140.634 78.6898 140.891 78.0219 141.15 77.3506C141.546 76.3224 141.949 75.2993 142.338 74.2694C143.25 71.8731 144.139 69.47 145.048 67.0738C145.489 65.913 145.98 64.7744 146.398 63.6034C146.674 62.8284 146.989 62.0739 147.279 61.3057C148.191 58.9094 149.081 56.5063 149.992 54.1118C150.704 52.2423 151.447 50.3831 152.146 48.5034C152.426 47.7523 152.754 47.0232 153.014 46.2635C153.642 44.4196 154.371 42.6232 155.071 40.8251C156.024 38.3643 157.13 35.9782 158.185 33.5683C158.712 32.3634 159.249 31.1601 159.758 29.9484C160.451 28.3118 161.188 26.7007 161.904 25.0777C162.129 24.5678 162.349 24.058 162.571 23.5396C162.597 23.498 162.611 23.4485 162.611 23.3977C162.611 23.347 162.597 23.2974 162.571 23.2558C162.5 23.1589 162.409 23.2099 162.324 23.2388L162.062 23.3289C160.603 23.8353 159.143 24.3407 157.683 24.8448C153.458 26.3007 149.233 27.7561 145.009 29.2108C140.955 30.6101 136.906 32.011 132.86 33.4137C131.105 34.0198 129.349 34.6271 127.593 35.2355C127.207 35.3715 127.212 35.3817 127.314 35.7624C127.726 37.28 128.203 38.7739 128.624 40.2898C129.136 42.1338 129.703 43.959 130.226 45.8013C130.77 47.72 131.355 49.6251 131.898 51.5455C132.419 53.3878 132.981 55.2147 133.503 57.057C134.051 58.9961 134.643 60.9199 135.193 62.859C135.71 64.6809 136.264 66.4891 136.777 68.3144C137.47 70.7787 138.221 73.2225 138.944 75.6749C139.029 75.9655 139.111 76.2561 139.184 76.5501C139.429 77.5307 139.827 78.4553 140.022 79.4529C140.038 79.514 140.078 79.5939 140.222 79.6143ZM226.965 1.02989C226.942 0.977204 226.91 0.929618 226.848 0.946613C226.706 0.987401 226.565 1.02479 226.425 1.07407L221.105 2.91462C217.178 4.27421 213.25 5.63381 209.323 6.9934C205.62 8.27141 201.918 9.54886 198.215 10.8257C194.495 12.1106 190.777 13.3976 187.06 14.687C183.966 15.7554 180.872 16.8227 177.778 17.8888L167.455 21.4578C166.204 21.8917 164.953 22.3279 163.704 22.7664C163.333 22.8972 163.354 22.904 163.527 23.2983C163.88 24.1039 164.313 24.8567 164.704 25.6368C165.807 27.8342 166.929 30.0215 168.022 32.2257C168.727 33.6482 169.466 35.0503 170.186 36.4643C170.51 37.0999 170.846 37.7304 171.133 38.3864C171.265 38.6889 171.388 38.6651 171.589 38.5257C172.053 38.2028 172.518 37.8816 172.984 37.5672C175.71 35.7261 178.436 33.8873 181.163 32.0507L189.343 26.5392L199.205 19.8925C201.931 18.0548 204.658 16.2171 207.383 14.3794C210.674 12.1587 213.963 9.94088 217.251 7.72588C220.133 5.78393 223.016 3.84368 225.901 1.90513C226.218 1.69269 226.522 1.48365 226.826 1.26782C226.908 1.21853 226.989 1.15735 226.965 1.02989ZM227.978 54.2035C227.808 54.1423 227.725 54.105 227.638 54.0829C225.915 53.6297 224.197 53.1765 222.484 52.7233C218.216 51.5903 213.949 50.4573 209.682 49.3243C206.547 48.4932 203.412 47.6741 200.281 46.8294C199.934 46.736 199.709 46.787 199.465 47.0793C198.183 48.6088 196.881 50.1197 195.59 51.6339C193.945 53.56 192.296 55.4861 190.644 57.4122C189.125 59.1728 187.605 60.9182 186.109 62.6976C185.665 63.2244 185.155 63.6901 184.79 64.3087C184.956 64.4455 185.142 64.5485 185.34 64.6129C187.67 65.6519 190.001 66.6902 192.332 67.7281C196.081 69.4038 199.834 71.0727 203.579 72.7722C203.751 72.869 203.945 72.9063 204.136 72.879C204.327 72.8518 204.506 72.7613 204.651 72.6192C205.661 71.7898 206.696 70.9945 207.724 70.1889L211.256 67.4222L216.614 63.2108C218.104 62.0416 219.594 60.874 221.084 59.7082C222.908 58.2721 224.752 56.8411 226.574 55.3898C227.032 55.0244 227.533 54.7287 227.978 54.2035ZM48.332 20.0744C47.5568 20.7338 46.8668 21.3235 46.1722 21.9081C44.6766 23.168 43.1794 24.4268 41.6808 25.6844C39.941 27.1573 38.2017 28.6302 36.4629 30.1031C36.1878 30.3291 36.1847 30.3291 36.3793 30.669C37.3049 32.1985 38.3035 33.672 39.2489 35.1879C40.0453 36.466 40.8889 37.7151 41.6975 38.988C42.804 40.7266 43.9197 42.4584 45.0307 44.1952C46.1099 45.8811 47.1875 47.5682 48.2636 49.2563C49.362 50.9762 50.4614 52.6955 51.5619 54.4143C52.5995 56.0333 53.6401 57.6507 54.6838 59.2663C54.7355 59.3462 54.7659 59.46 54.8829 59.4091C54.9999 59.3581 54.9741 59.2527 54.9559 59.1541C54.8221 58.4166 54.7385 57.6671 54.6093 56.9312C54.0409 53.6761 53.4835 50.4188 52.9374 47.1591C52.413 43.9794 51.8415 40.8082 51.3187 37.6267C50.7669 34.2855 50.1422 30.9596 49.6194 27.6133C49.3807 26.0838 49.0509 24.5848 48.8457 23.0536C48.7302 22.0849 48.5235 21.1349 48.332 20.0744ZM203.821 73.2327C203.705 73.1647 203.66 73.1325 203.611 73.1104C200.893 71.8924 198.176 70.6744 195.46 69.4565C192.237 68.0085 189.016 66.5583 185.796 65.1058C185.442 64.9477 185.088 64.7846 184.732 64.6452C184.545 64.5721 184.451 64.6928 184.515 64.8967C184.551 64.9898 184.594 65.0796 184.642 65.1652C185.655 67.1859 186.662 69.2083 187.682 71.2239C188.666 73.1715 189.658 75.1073 190.652 77.0532C191.009 77.7585 191.347 78.479 191.701 79.1877C192.081 79.9508 192.474 80.7054 192.856 81.4667C192.962 81.6792 193.064 81.6945 193.241 81.5551C194.025 80.9297 194.818 80.3179 195.609 79.6993C197.752 78.0191 199.894 76.3366 202.035 74.6518C202.612 74.198 203.187 73.7392 203.825 73.2327H203.821ZM184.67 63.6119C185.115 63.3145 198.957 47.0827 199.223 46.5575L186.972 43.3132C186.206 50.1061 185.442 56.8411 184.674 63.6119H184.67ZM155.639 40.8982C158.151 40.5583 160.679 40.2184 163.204 39.8666C165.728 39.5148 168.274 39.1987 170.826 38.8078C170.136 37.1491 163.36 23.8183 163.061 23.5124C162.515 24.7497 161.947 25.9733 161.434 27.2275C161.153 27.9073 160.842 28.5769 160.551 29.255C159.614 31.4321 158.685 33.6159 157.743 35.793C157.062 37.365 156.366 38.9319 155.675 40.4988C155.64 40.5566 155.618 40.6234 155.611 40.6931C155.605 40.7629 155.614 40.8334 155.637 40.8982H155.639ZM226.946 1.05708C227.045 1.05974 227.142 1.03688 227.232 0.990287C227.321 0.943698 227.399 0.87465 227.46 0.78856C227.232 0.778364 227.068 0.781763 226.946 1.05708ZM54.9863 59.5297L54.9498 59.455C54.9391 59.4669 54.9163 59.4838 54.9194 59.4923C54.9265 59.52 54.9373 59.5463 54.9513 59.5705L54.9863 59.5297ZM48.7956 19.8806L48.8336 19.9605C48.8457 19.9469 48.8701 19.9299 48.8685 19.9197C48.8597 19.8911 48.848 19.8638 48.8336 19.8381L48.7956 19.8806Z" fill="#202020" fill-opacity="0.2"/>
<path d="M116.024 0.0305939C115.969 0.231134 115.794 0.200543 115.671 0.234533C110.177 1.80373 104.68 3.36953 99.1784 4.93192C94.421 6.29152 89.6642 7.65111 84.9078 9.0107C80.3784 10.3068 75.848 11.5945 71.3166 12.8736C66.8409 14.1494 62.3657 15.428 57.8911 16.7094C55.0001 17.5353 52.1123 18.3613 49.2275 19.1872C48.7578 19.3215 48.7472 19.3198 48.5769 18.7947C47.8945 16.7332 47.2044 14.6768 46.563 12.6017C46.0827 11.0433 45.5599 9.50525 45.072 7.95192C44.4944 6.11137 43.8758 4.28442 43.3013 2.44387C43.0505 1.63831 42.7434 0.854847 42.5413 0.0305939H116.024Z" fill="#FEFEFE"/>
<path d="M0.010849 0.275314C0.744975 0.445263 1.42438 0.793659 2.12507 1.07238C5.32908 2.34529 8.52549 3.6471 11.7249 4.92852C14.854 6.18841 17.9845 7.44773 21.1166 8.70649C23.9963 9.86554 26.8726 11.0155 29.7452 12.1565C30.5386 12.4726 30.5477 12.4624 30.7879 13.358C31.5864 16.3378 32.4091 19.3096 33.2563 22.2735C33.3733 22.6763 33.4462 23.0944 33.545 23.5226C33.1955 23.7453 32.8079 23.7572 32.4431 23.8421C26.5174 25.2425 20.5897 26.635 14.6599 28.0195C9.92383 29.131 5.18823 30.2453 0.453148 31.3624C0.301155 31.3964 0.149163 31.5323 0.0123689 31.3301L0.010849 0.275314Z" fill="#FEFEFE"/>
<path d="M0.010849 31.8196C0.548904 31.5731 1.12648 31.5086 1.68277 31.376C6.00748 30.3563 10.3332 29.3411 14.6599 28.3305L27.4273 25.3445C29.3865 24.8873 31.3472 24.4404 33.3003 23.956C33.6241 23.8761 33.7183 23.9832 33.7958 24.2857C34.1865 25.8153 34.6759 27.3006 35.0331 28.837C35.1351 29.2486 35.2558 29.6542 35.3948 30.0521C35.4453 30.1589 35.4562 30.2836 35.4252 30.3993C35.3942 30.515 35.3238 30.6125 35.2291 30.6707C34.1758 31.5408 33.1377 32.4314 32.0935 33.3151C30.5857 34.592 29.0785 35.8683 27.5717 37.1441C26.3558 38.174 25.1307 39.197 23.9117 40.2269C22.3948 41.514 20.8764 42.8034 19.3565 44.095C18.1512 45.1147 16.9429 46.1208 15.7376 47.1388C14.2176 48.4236 12.6977 49.7112 11.1778 51.0017C9.97196 52.0214 8.76665 53.0371 7.56186 54.0489C5.74909 55.5796 3.93733 57.1131 2.12659 58.6494C1.54598 59.1406 0.965365 59.6317 0.378672 60.111C0.282916 60.1891 0.181081 60.3897 0.0260483 60.1874L0.010849 31.8196Z" fill="#FEFEFE"/>
<path d="M228 0.153028C227.283 0.508222 226.52 0.708761 225.775 0.968783C221.747 2.37483 217.717 3.76954 213.684 5.15293C209.428 6.62582 205.172 8.09418 200.916 9.55801L189.918 13.3615L179.645 16.9032C176.239 18.0815 172.835 19.261 169.431 20.4415C167.708 21.0364 165.986 21.6306 164.263 22.2243C164.121 22.2998 163.964 22.3321 163.807 22.3178C163.74 22.1699 163.826 22.0798 163.889 21.9898C164.507 21.1094 165.13 20.2342 165.744 19.3522C167.029 17.5077 168.312 15.6626 169.594 13.8169C170.202 12.9502 170.81 12.0902 171.418 11.2252C172.728 9.35237 174.037 7.4784 175.347 5.60329C176.008 4.65838 176.678 3.72196 177.339 2.77704C177.976 1.86441 178.604 0.943291 179.238 0.0272658C195.33 0.0272658 211.422 0.0272658 227.514 0.0272658C227.667 0.0374628 227.878 -0.103595 228 0.153028Z" fill="#FEFEFE"/>
<path d="M172.779 102C172.757 101.758 172.795 101.513 172.889 101.293C173.357 99.8603 173.851 98.4379 174.286 96.9916C174.825 95.2003 175.424 93.4329 175.974 91.645C176.496 89.954 177.052 88.2766 177.573 86.5873C178.119 84.8182 178.704 83.0677 179.245 81.2985C179.77 79.5871 180.329 77.8893 180.856 76.1796C181.407 74.3918 181.995 72.6107 182.542 70.8314C183.027 69.2542 183.519 67.6805 184.031 66.1153C184.086 65.9453 184.147 65.7754 184.24 65.5085C184.525 65.9194 184.776 66.3586 184.991 66.8206C185.644 68.1122 186.279 69.414 186.927 70.7073C187.975 72.7988 189.025 74.8886 190.079 76.9767C190.748 78.304 191.434 79.6228 192.102 80.9501C193.064 82.862 194.016 84.7808 194.975 86.6944C195.562 87.8653 196.154 89.0312 196.743 90.1987C197.804 92.3061 198.864 94.4129 199.925 96.5191C200.613 97.8787 201.307 99.2383 202.006 100.598C202.25 101.045 202.459 101.514 202.631 102.002L172.779 102Z" fill="#FEFEFE"/>
<path d="M145.989 0.0305939C146.117 0.112169 146.029 0.200543 145.989 0.27532C145.57 1.05879 145.155 1.84735 144.726 2.62402C143.741 4.40508 142.75 6.17935 141.762 7.96042C140.647 9.96581 139.542 11.9746 138.453 13.9868C137.382 15.9701 136.287 17.9364 135.205 19.9129C134.103 21.9217 133.009 23.9373 131.895 25.9376C130.801 27.9039 129.726 29.8855 128.648 31.8637C128.232 32.6268 127.829 33.3933 127.419 34.1649C127.365 34.2714 127.304 34.3736 127.238 34.4708C127.199 34.5362 127.142 34.5848 127.075 34.6084C126.961 34.6237 126.923 34.4997 126.908 34.4079C126.726 33.4273 126.347 32.518 126.089 31.5663C125.988 31.1958 125.894 30.8237 125.785 30.4566C125.08 28.062 124.351 25.6759 123.674 23.2711C123.149 21.4017 122.578 19.5645 122.052 17.7053C121.517 15.8036 120.932 13.9222 120.395 12.0222C119.871 10.1528 119.295 8.31901 118.773 6.45637C118.358 4.96931 117.893 3.50435 117.439 2.03769C117.305 1.59922 117.221 1.14036 117.062 0.71039C116.98 0.489456 117.062 0.256626 117.01 0.0305939H145.989Z" fill="#FEFEFE"/>
<path d="M58.8395 102C58.7118 101.341 58.724 100.666 58.6708 99.9997C58.4443 97.1803 58.2254 94.3591 58.0355 91.5362C57.9367 90.0543 57.8835 88.5689 57.7604 87.0887C57.5749 84.8165 57.388 82.5459 57.2466 80.2703C57.1113 78.0967 56.97 75.923 56.8013 73.7511C56.663 71.987 56.514 70.2212 56.4091 68.4538C56.2951 66.5639 56.207 64.6741 56.0291 62.7894C56.0238 62.7283 56.0238 62.6669 56.0291 62.6058C56.0257 62.5659 56.0343 62.5258 56.0536 62.4919C56.0729 62.458 56.1017 62.4323 56.1355 62.4189C56.2207 62.3866 56.2663 62.4291 56.3134 62.5021C56.5611 62.8794 56.818 63.2499 57.0612 63.6306C57.7148 64.6503 58.3577 65.6938 59.0143 66.7169C60.2652 68.6679 61.5252 70.6087 62.7761 72.558C63.8461 74.2269 64.9136 75.8975 65.9786 77.5698C67.0882 79.3067 68.1987 81.0425 69.3103 82.7771C70.3884 84.4641 71.4661 86.1517 72.5432 87.8399C73.6527 89.5767 74.7638 91.313 75.8764 93.0488C76.9555 94.7369 78.0337 96.4245 79.1108 98.1116C79.891 99.3352 80.6702 100.561 81.4485 101.789C81.4895 101.854 81.5381 101.917 81.4773 102H58.8395Z" fill="#FEFEFE"/>
<path d="M42.1096 0.0305939C42.2297 0.455466 42.3361 0.880339 42.4729 1.30691C43.2085 3.56044 43.9792 5.80376 44.6844 8.06578C45.2392 9.83155 45.8319 11.5803 46.3913 13.3444C46.9005 14.9538 47.4036 16.5734 47.9629 18.1574C48.0637 18.4675 48.1415 18.7864 48.1954 19.1108C47.9142 19.1465 47.7015 19.0105 47.4902 18.9255C42.3012 16.8521 37.1136 14.7731 31.9276 12.6884C27.0173 10.717 22.1059 8.74558 17.1934 6.77417C11.7663 4.59882 6.33861 2.42348 0.910439 0.248129C0.813164 0.215838 0.638372 0.248129 0.661171 0.0305939H42.1096Z" fill="#FEFEFE"/>
<path d="M0.010726 60.7959C0.529022 60.5664 0.907484 60.1161 1.3437 59.7524C2.59005 58.7327 3.81207 57.6722 5.04473 56.6287L9.61364 52.7624L13.2296 49.7118C14.7657 48.4122 16.3028 47.1093 17.841 45.803C19.0311 44.7986 20.2258 43.801 21.4159 42.7966C22.9693 41.4846 24.5211 40.172 26.0714 38.8588C27.2874 37.829 28.52 36.8195 29.7329 35.776C31.1754 34.5404 32.6588 33.3644 34.0678 32.0762C34.2354 31.9277 34.4283 31.8189 34.6347 31.7567C34.1179 32.4365 33.6072 33.1316 33.0844 33.8097C31.7773 35.5024 30.4671 37.1916 29.1539 38.8775C28.4851 39.7375 27.8057 40.577 27.1384 41.4455C25.9012 43.043 24.6716 44.649 23.4344 46.2465C22.5482 47.409 21.6363 48.5493 20.7426 49.7033C19.443 51.3756 18.1587 53.0564 16.8531 54.7287C15.9229 55.9183 14.9805 57.108 14.0503 58.3095C12.8009 59.9206 11.5591 61.5385 10.3098 63.1548C9.42821 64.2917 8.53601 65.4185 7.65445 66.5537C6.34427 68.2362 5.03561 69.9272 3.72847 71.6267C2.84539 72.7637 1.95624 73.8921 1.0686 75.0257C0.864926 75.2857 0.649096 75.5355 0.460625 75.8109C0.34967 75.9808 0.246315 76.2051 0.0046463 76.2068L0.010726 60.7959Z" fill="#FEFEFE"/>
<path d="M87.3382 51.7427C87.709 51.4317 88.1255 51.3365 88.507 51.1767C94.5046 48.6751 100.505 46.1825 106.508 43.699C111.028 41.8103 115.546 39.9301 120.062 38.0584C122.091 37.2086 124.116 36.3589 126.142 35.5091C126.245 35.465 126.347 35.4242 126.446 35.3851C126.659 35.3035 126.77 35.3698 126.843 35.6298C127.248 37.0642 127.669 38.4935 128.089 39.9244C128.741 42.1457 129.417 44.3601 130.042 46.5932C130.557 48.4372 131.124 50.2624 131.644 52.103C132.185 54.0234 132.772 55.9285 133.316 57.8472C133.839 59.6878 134.401 61.5164 134.92 63.357C135.462 65.2774 136.052 67.1808 136.591 69.0996C137.111 70.9418 137.677 72.7688 138.195 74.611C138.735 76.5314 139.324 78.4332 139.867 80.3536C140.387 82.1958 140.952 84.0228 141.472 85.8633C142.016 87.7838 142.606 89.6872 143.144 91.6059C143.668 93.4754 144.249 95.3108 144.76 97.1769C145.064 98.2662 145.428 99.3284 145.694 100.428C145.734 100.598 145.862 100.81 145.694 100.938C145.527 101.065 145.39 100.841 145.275 100.739C144.039 99.7006 142.811 98.6503 141.578 97.6085C140.65 96.8234 139.716 96.045 138.786 95.2598C137.248 93.9614 135.71 92.6613 134.173 91.3595C132.957 90.3313 131.729 89.3082 130.51 88.28C129 87.0054 127.493 85.7285 125.987 84.4494C124.797 83.4433 123.602 82.444 122.412 81.4396C120.859 80.1276 119.306 78.8144 117.755 77.5001C116.539 76.4725 115.319 75.4455 114.093 74.419C112.584 73.1444 111.076 71.8675 109.57 70.5883C108.354 69.5567 107.128 68.5353 105.909 67.5054C104.399 66.2308 102.891 64.9539 101.385 63.6748C100.169 62.6449 98.9484 61.6178 97.7223 60.5936C96.2115 59.319 94.7027 58.0433 93.196 56.7664C91.98 55.7365 90.7595 54.7083 89.5345 53.6818C88.8946 53.1448 88.2516 52.6111 87.6148 52.0707C87.5157 51.9689 87.4232 51.8593 87.3382 51.7427Z" fill="#FEFEFE"/>
<path d="M116.183 0.418076C116.204 0.510209 116.204 0.606449 116.184 0.698714C116.164 0.790979 116.125 0.876576 116.069 0.948317C115.461 2.0088 114.844 3.06588 114.236 4.12806C113.216 5.908 112.198 7.68906 111.181 9.47126C110.573 10.5334 109.965 11.5888 109.357 12.651C108.327 14.4479 107.298 16.246 106.272 18.0452C105.643 19.1397 105.006 20.229 104.378 21.3252C103.367 23.0876 102.364 24.855 101.353 26.6174C100.726 27.7136 100.087 28.8013 99.4596 29.8974C98.4504 31.6598 97.4472 33.429 96.4365 35.1913C95.7692 36.3555 95.0883 37.5095 94.4211 38.6736C93.4513 40.3731 92.4907 42.0726 91.521 43.7721C90.8644 44.9192 90.1941 46.0579 89.5451 47.2067C88.8307 48.4559 88.127 49.7135 87.4172 50.9677C87.3706 51.0551 87.3199 51.1396 87.2652 51.2209C87.057 51.5149 86.9932 51.5285 86.7317 51.3093C85.9292 50.6397 85.1287 49.9678 84.3302 49.2937C83.3742 48.4831 82.4227 47.6656 81.4652 46.8549C79.8997 45.5282 78.3331 44.2026 76.7656 42.8781C75.5496 41.8494 74.3276 40.8223 73.0995 39.797C71.5948 38.5291 70.0956 37.2619 68.602 35.9952C67.3861 34.9653 66.1656 33.9371 64.9405 32.9106L60.3731 29.0426C59.1678 28.0229 57.958 27.0151 56.7526 25.9971C55.2287 24.7112 53.7067 23.4229 52.1868 22.1325C51.2748 21.3609 50.3583 20.5916 49.4372 19.8246C49.3168 19.755 49.2229 19.6391 49.1728 19.4983C54.7555 17.899 60.3321 16.3236 65.9057 14.7295C71.4792 13.1354 77.0847 11.5395 82.6735 9.94712C88.2623 8.35469 93.8511 6.76567 99.4414 5.17665C105.032 3.58762 110.599 1.9867 116.183 0.418076Z" fill="#FEFEFE"/>
<path d="M81.8862 101.59C81.4576 101.225 81.2493 100.814 81.0077 100.44C80.3146 99.3709 79.6397 98.2832 78.9588 97.2108C77.6821 95.2077 76.4038 93.2051 75.124 91.2031C74.5161 90.2599 73.9081 89.3201 73.3123 88.3769C72.2655 86.7386 71.2198 85.0997 70.1751 83.4603C69.5079 82.4185 68.8285 81.3869 68.1627 80.3434C67.2006 78.8394 66.2492 77.3251 65.2886 75.8194C64.6547 74.8269 64.0118 73.8411 63.3765 72.8486C62.3733 71.2772 61.3712 69.704 60.3701 68.1292C59.7682 67.1842 59.1638 66.2422 58.5568 65.3029C57.6783 63.9314 56.7952 62.5616 55.9228 61.185C55.735 60.8816 55.6161 60.5316 55.5762 60.1653C55.3817 58.5899 55.0214 57.0502 54.7782 55.485C54.266 52.1964 53.6489 48.93 53.1063 45.6466C52.5895 42.5042 52.0226 39.3721 51.5074 36.2297C50.9708 32.9463 50.3659 29.6765 49.8354 26.3931C49.5147 24.4098 49.0998 22.4486 48.8277 20.4568C48.8277 20.416 48.8125 20.3769 48.808 20.3361C48.7958 20.2171 48.7532 20.0846 48.8612 19.9962C48.9691 19.9078 49.0679 20.0081 49.1515 20.0778C49.6074 20.4534 50.0634 20.8273 50.5088 21.2079C51.7419 22.2526 52.9731 23.2983 54.2022 24.3452C55.7383 25.647 57.2765 26.9499 58.8167 28.254L62.3901 31.2655C63.9414 32.5787 65.4932 33.8924 67.0456 35.2066C68.2615 36.2263 69.4912 37.2562 70.7101 38.2861C72.221 39.5607 73.7297 40.837 75.2365 42.1151C76.4524 43.145 77.679 44.168 78.898 45.1979C80.4088 46.4726 81.9171 47.7494 83.4228 49.0286C84.3667 49.8257 85.2984 50.6397 86.2651 51.4079C86.4199 51.5085 86.5423 51.6614 86.6146 51.8446C86.687 52.0277 86.7056 52.2318 86.6679 52.4276C86.4049 54.8952 86.1374 57.3561 85.9292 59.8356C85.7377 62.1266 85.4915 64.4124 85.2726 66.6999C84.9397 70.1821 84.5476 73.6593 84.2588 77.145C83.9822 80.493 83.5611 83.8205 83.3088 87.1719C83.1417 89.3813 82.8392 91.5804 82.6553 93.7898C82.4592 96.1215 82.2206 98.4481 81.9835 100.776C81.9637 101.002 81.9303 101.237 81.8862 101.59Z" fill="#FEFEFE"/>
<path d="M183.737 64.3716L140.659 79.9763C140.724 79.6154 140.826 79.2641 140.963 78.9294C141.692 77.0447 142.44 75.1668 143.145 73.2718C143.676 71.8442 144.237 70.4337 144.769 69.0078C145.314 67.5428 145.893 66.0949 146.441 64.6316C146.965 63.2244 147.517 61.8292 148.043 60.4237C148.591 58.9604 149.166 57.5107 149.715 56.0475C150.247 54.6216 150.807 53.2093 151.339 51.7835C151.885 50.3202 152.464 48.8722 153.011 47.4073C153.533 45.9984 154.075 44.6014 154.609 43.1976C154.806 42.6742 154.989 42.1423 155.177 41.6137C155.214 41.4793 155.288 41.361 155.387 41.2752C155.487 41.1894 155.608 41.1402 155.733 41.1345C158.267 40.8048 160.8 40.4649 163.333 40.1148C165.738 39.7896 168.141 39.4627 170.544 39.1342C171.012 39.0713 171.007 39.0815 171.24 39.5437C171.597 40.2524 171.968 40.9526 172.325 41.663C173.32 43.6457 174.315 45.6285 175.309 47.6112C175.941 48.8688 176.585 50.1197 177.218 51.3773C178.226 53.377 179.231 55.379 180.232 57.3833C180.856 58.6239 181.487 59.8594 182.113 61.0984C182.632 62.1724 183.164 63.2329 183.737 64.3716Z" fill="#FEFEFE"/>
<path d="M140.223 79.6143C140.071 79.6007 140.043 79.5208 140.028 79.4444C139.833 78.4468 139.435 77.5222 139.191 76.5416C139.118 76.2476 139.039 75.957 138.95 75.6664C138.227 73.214 137.476 70.7702 136.783 68.3059C136.271 66.4807 135.719 64.6724 135.199 62.8505C134.649 60.9114 134.058 58.9876 133.509 57.0485C132.988 55.2062 132.425 53.3793 131.904 51.537C131.361 49.6166 130.776 47.7115 130.232 45.7928C129.709 43.9505 129.142 42.1253 128.63 40.2813C128.209 38.7654 127.732 37.2715 127.32 35.7539C127.218 35.3732 127.213 35.363 127.6 35.227C129.354 34.6175 131.109 34.0102 132.866 33.4052C136.919 32.0048 140.969 30.6039 145.015 29.2023C149.238 27.7442 153.463 26.2888 157.69 24.8363C159.15 24.3333 160.609 23.828 162.069 23.3204L162.33 23.2303C162.415 23.2014 162.506 23.1505 162.578 23.2473C162.604 23.289 162.618 23.3385 162.618 23.3892C162.618 23.44 162.604 23.4895 162.578 23.5311C162.356 24.041 162.135 24.5508 161.91 25.0692C161.195 26.6922 160.457 28.2982 159.764 29.9399C159.251 31.1517 158.719 32.3549 158.191 33.5598C157.136 35.9697 156.03 38.3558 155.077 40.8167C154.378 42.6215 153.648 44.4179 153.02 46.255C152.762 47.0147 152.432 47.7438 152.152 48.495C151.453 50.3644 150.71 52.2338 149.999 54.1033C149.087 56.4979 148.193 58.9009 147.286 61.2972C146.995 62.0637 146.678 62.8267 146.404 63.5949C145.986 64.7659 145.492 65.9045 145.054 67.0653C144.142 69.4616 143.25 71.8646 142.344 74.2609C141.955 75.2908 141.553 76.3139 141.156 77.3421C140.897 78.0134 140.641 78.6881 140.381 79.3611C140.343 79.4699 140.289 79.5786 140.223 79.6143Z" fill="#FEFEFE"/>
<path d="M87.9583 50.8284C88.3595 49.9599 88.8839 49.1781 89.3475 48.3522C90.302 46.6527 91.3036 44.9719 92.281 43.2792C93.3753 41.3826 94.4656 39.4837 95.5519 37.5825C96.6381 35.6814 97.7284 33.7825 98.8227 31.8858C99.9211 29.9688 101.021 28.0529 102.123 26.1382L105.384 20.4381L108.689 14.6938L111.92 9.04129C113.03 7.10727 114.159 5.18684 115.241 3.23583C115.595 2.59682 116.001 1.9969 116.317 1.329C116.389 1.15248 116.502 1.00094 116.644 0.890533C116.887 1.06048 116.89 1.36979 116.948 1.61112C117.415 3.36499 117.965 5.08827 118.457 6.83195C119.023 8.83055 119.631 10.8122 120.196 12.8091C120.681 14.5085 121.193 16.208 121.678 17.916C122.262 19.9724 122.88 22.0135 123.47 24.0665C123.981 25.8475 124.519 27.6201 125.025 29.4029C125.52 31.1483 126.017 32.8919 126.545 34.622C126.645 34.95 126.534 35.0401 126.288 35.1319C124.716 35.7743 123.148 36.4286 121.576 37.0812L112.83 40.7198L104.287 44.2666C101.132 45.5764 97.9766 46.8867 94.8223 48.1975C92.5728 49.1311 90.3218 50.059 88.0692 50.9813L87.9583 50.8284Z" fill="#FEFEFE"/>
<path d="M226.965 1.02989C226.989 1.15735 226.909 1.21854 226.833 1.26952C226.529 1.48366 226.211 1.69269 225.9 1.90343C223.017 3.84198 220.134 5.7828 217.251 7.72588C213.962 9.93975 210.674 12.1559 207.388 14.3743C204.664 16.2131 201.937 18.0509 199.21 19.8874L189.348 26.5341L181.168 32.0456C178.441 33.8833 175.715 35.7221 172.989 37.5621C172.523 37.8765 172.058 38.1977 171.594 38.5206C171.393 38.66 171.27 38.6906 171.138 38.3813C170.851 37.7253 170.515 37.0948 170.191 36.4592C169.471 35.0452 168.732 33.6431 168.027 32.2206C166.934 30.0113 165.812 27.8292 164.709 25.6317C164.318 24.8516 163.885 24.1022 163.532 23.2932C163.359 22.8989 163.338 22.8921 163.709 22.7613C164.958 22.3194 166.208 21.8832 167.46 21.4527L177.783 17.8837C180.877 16.8153 183.971 15.748 187.065 14.6819C190.783 13.3971 194.501 12.11 198.22 10.8207C201.922 9.5415 205.624 8.26405 209.328 6.9883C213.255 5.62871 217.183 4.26912 221.11 2.90953L226.43 1.06898C226.57 1.01969 226.711 0.982306 226.853 0.941518C226.91 0.927922 226.942 0.977207 226.965 1.02989Z" fill="#FEFEFE"/>
<path d="M227.979 54.2035C227.533 54.7287 227.032 55.0244 226.579 55.3932C224.755 56.8445 222.92 58.2823 221.089 59.7116C219.599 60.8808 218.109 62.0484 216.619 63.2142L211.261 67.4256L207.729 70.1923C206.701 70.9979 205.666 71.7933 204.655 72.6226C204.511 72.7647 204.332 72.8552 204.141 72.8824C203.95 72.9097 203.756 72.8725 203.584 72.7756C199.842 71.0761 196.089 69.4072 192.336 67.7315C190.006 66.6903 187.675 65.6519 185.345 64.6163C185.147 64.5519 184.96 64.4489 184.794 64.3121C185.159 63.6935 185.67 63.2278 186.114 62.701C187.612 60.9199 189.132 59.1694 190.652 57.4088C192.303 55.4827 193.952 53.5566 195.598 51.6305C196.893 50.1163 198.191 48.6037 199.472 47.0759C199.717 46.7836 199.942 46.736 200.289 46.8261C203.42 47.6758 206.555 48.4898 209.689 49.3209C213.957 50.4539 218.225 51.5869 222.492 52.7199C224.214 53.1731 225.932 53.6263 227.646 54.0795C227.725 54.105 227.808 54.1424 227.979 54.2035Z" fill="#FEFEFE"/>
<path d="M48.3322 20.0744C48.5237 21.1349 48.7305 22.0849 48.8596 23.0468C49.0648 24.5763 49.3947 26.0821 49.6333 27.6065C50.1562 30.9528 50.7808 34.2787 51.3326 37.6199C51.8554 40.8014 52.4269 43.9726 52.9513 47.1524C53.4883 50.4131 54.0456 53.6705 54.6232 56.9244C54.7524 57.6603 54.836 58.4098 54.9698 59.1474C54.988 59.2459 55.0062 59.3547 54.8968 59.4023C54.7874 59.4499 54.7448 59.3394 54.6977 59.2595C53.6581 57.6416 52.6174 56.0243 51.5758 54.4075C50.4743 52.691 49.3749 50.9717 48.2775 49.2495C47.1943 47.5636 46.1162 45.8766 45.0431 44.1884C43.932 42.4516 42.8164 40.7198 41.7099 38.9812C40.9013 37.7083 40.0577 36.4592 39.2613 35.1811C38.3098 33.6652 37.3112 32.1985 36.3795 30.669C36.1789 30.3291 36.1819 30.3291 36.457 30.1048C38.1979 28.6319 39.9372 27.159 41.6749 25.6861C43.1706 24.4239 44.6677 23.1652 46.1663 21.9098C46.867 21.3218 47.5571 20.7338 48.3322 20.0744Z" fill="#FEFEFE"/>
<path d="M171.851 39.3143L180.189 41.5117C182.154 42.0295 184.118 42.5518 186.082 43.0787C186.538 43.1976 186.538 43.201 186.469 43.7126C186.292 45.2047 186.061 46.6935 185.945 48.1924C185.722 51.0969 185.252 53.9707 185 56.8598C184.831 58.8041 184.544 60.7347 184.323 62.6721C184.272 63.1072 184.244 63.5456 184.2 64.0623C183.913 63.7455 183.685 63.3683 183.528 62.9525C183.208 62.2217 182.817 61.5351 182.464 60.8231C181.495 58.8448 180.457 56.9142 179.476 54.936C178.399 52.7692 177.301 50.6142 176.213 48.4542C175.125 46.2941 174.014 44.1018 172.925 41.9179C172.52 41.1039 172.045 40.3272 171.728 39.4588L171.851 39.3143Z" fill="#FEFEFE"/>
<path d="M31.23 12.7887C32.2058 13.1711 33.1846 13.5466 34.1589 13.9358C37.0336 15.0847 39.9073 16.2369 42.7799 17.3926C44.4914 18.0792 46.2023 18.7658 47.9127 19.4524C48.0443 19.4926 48.1596 19.5819 48.2395 19.7056L35.9053 30.1065C35.6013 29.0409 35.2973 28.0671 35.0344 27.0746C34.9584 26.7857 34.8976 26.4883 34.814 26.1976C34.358 24.6103 33.8807 23.0298 33.4597 21.4391C32.946 19.4881 32.3669 17.5625 31.8486 15.6149C31.61 14.721 31.3257 13.8407 31.1266 12.9348L31.23 12.7887Z" fill="#FEFEFE"/>
<path d="M203.826 73.2327C203.187 73.7426 202.61 74.198 202.035 74.6518C199.893 76.3354 197.751 78.0179 195.609 79.6993C194.818 80.3179 194.025 80.9297 193.241 81.5551C193.064 81.6945 192.963 81.6792 192.856 81.4668C192.475 80.7054 192.081 79.9508 191.701 79.1877C191.347 78.4791 191.01 77.7585 190.652 77.0532C189.666 75.1073 188.666 73.1716 187.682 71.2239C186.662 69.2083 185.655 67.186 184.643 65.1653C184.594 65.0796 184.551 64.9898 184.515 64.8967C184.451 64.6928 184.545 64.5721 184.732 64.6452C185.092 64.7846 185.447 64.9477 185.796 65.1058C189.017 66.556 192.239 68.0062 195.46 69.4565C198.175 70.6767 200.893 71.8947 203.611 73.1104C203.664 73.1325 203.71 73.1648 203.826 73.2327Z" fill="#FEFEFE"/>
<path d="M184.674 63.6119C185.434 56.8429 186.207 50.1061 186.977 43.3132L199.228 46.5575C198.968 47.0827 185.12 63.3145 184.674 63.6119Z" fill="#FEFEFE"/>
<path d="M155.638 40.8982C155.614 40.8335 155.604 40.7631 155.611 40.6934C155.617 40.6236 155.639 40.5568 155.674 40.4989C156.364 38.9319 157.06 37.365 157.741 35.793C158.684 33.6159 159.612 31.4321 160.55 29.255C160.84 28.5752 161.158 27.9124 161.433 27.2275C161.945 25.9733 162.514 24.7497 163.06 23.5125C163.363 23.8184 170.135 37.1492 170.825 38.8079C168.273 39.1987 165.735 39.5115 163.202 39.8666C160.67 40.2218 158.15 40.5566 155.638 40.8982Z" fill="#FEFEFE"/>
<path d="M226.947 1.05709C227.068 0.781769 227.232 0.77837 227.46 0.788567C227.399 0.874657 227.321 0.943705 227.232 0.990293C227.143 1.03688 227.045 1.05974 226.947 1.05709Z" fill="#FEFEFE"/>
<path d="M127.783 34.8226C127.722 34.8667 127.652 34.899 127.595 34.8362C127.539 34.7733 127.595 34.7325 127.629 34.6917L127.783 34.8226Z" fill="#FEFEFE"/>
<path d="M31.1268 12.9212C31.0902 12.8804 31.0612 12.8311 31.0993 12.7819C31.1375 12.7326 31.1878 12.7632 31.2306 12.7819L31.1268 12.9212Z" fill="#FEFEFE"/>
<path d="M171.731 39.4622C171.711 39.418 171.664 39.35 171.676 39.3313C171.72 39.265 171.789 39.2837 171.851 39.3143L171.731 39.4622Z" fill="#FEFEFE"/>
<path d="M88.0913 50.9881C88.0333 51.017 87.9723 51.0765 87.9128 51.0051C87.8533 50.9337 87.9128 50.8793 87.9586 50.8351L88.0913 50.9881Z" fill="#FEFEFE"/>
<path d="M54.9867 59.5297L54.9516 59.5705C54.9376 59.5464 54.9268 59.52 54.9196 59.4923C54.9196 59.4839 54.9394 59.4669 54.9501 59.455L54.9867 59.5297Z" fill="#FEFEFE"/>
<path d="M48.7958 19.8806L48.834 19.8381C48.8484 19.8638 48.8602 19.8911 48.8691 19.9197C48.8691 19.9299 48.8462 19.9469 48.834 19.9605L48.7958 19.8806Z" fill="#FEFEFE"/>
</g>
<defs>
<clipPath id="clip0_133_82">
<rect width="228" height="102" fill="white"/>
</clipPath>
</defs>
</svg>
