<svg id="Layer_1" data-name="Layer 1" xmlns="http://www.w3.org/2000/svg" viewBox="0 0 1500.72 600.72"><defs><style>.cls-1{fill:#ff4f42;}.cls-2{opacity:0.4;}.cls-3{fill:#fff;}.cls-4{fill:#a6a6a6;}</style></defs><title>map_background</title><rect class="cls-1" width="1500" height="600"/><g class="cls-2"><path class="cls-3" d="M3.6,600.72H.72V453.24a5.36,5.36,0,0,0,2.58-1.86q5.24-6.13,10.48-12.26c6.39-7.43,12.76-14.88,19.2-22.27,4.47-5.13,9.19-10.06,13.54-15.3,2-2.41,4.25-4.55,6.19-7,6.3-7.83,12.95-15.35,19.59-22.87,4.2-4.75,8.44-9.46,12.59-14.24,5.18-6,10.23-12,15.41-18,5.66-6.49,11.2-13.07,17-19.46,6.17-6.81,12-13.9,18.06-20.85,4.78-5.52,9.6-11,14.39-16.51q9.15-10.56,18.27-21.15c4.16-4.79,8.35-9.54,12.5-14.33,7-8,13.9-16.11,20.94-24.09,4.27-4.84,8.56-9.66,12.79-14.53,7.14-8.21,14-16.69,21.35-24.68.61-.65.87-1.79,2.29-1.76.93,1.23,2,2.53,2.93,3.89q9.56,13.44,19.1,26.91c3.52,5,7,10,10.54,15,2.65,3.69,5.48,7.25,8.11,10.95,4.57,6.43,9,13,13.58,19.39,4.84,6.82,9.77,13.59,14.64,20.39,4.25,5.93,8.45,11.89,12.72,17.81s8.63,11.75,12.88,17.68c4.46,6.21,8.82,12.5,13.24,18.74,5.53,7.81,11.09,15.59,16.6,23.41,1.7,2.41,1.67,2.53-.74,4.19-3.06,2.09-6.18,4.1-9.27,6.15-11.45,7.62-22.92,15.21-34.35,22.87-9.54,6.39-19,12.89-28.55,19.26-10.05,6.71-20.17,13.3-30.21,20-10.25,6.83-20.44,13.76-30.67,20.62-9.44,6.32-18.92,12.6-28.37,18.93-10.83,7.25-21.62,14.55-32.47,21.79-9.25,6.18-18.58,12.25-27.81,18.45-13.21,8.88-26.34,17.87-39.56,26.74-10,6.73-20.17,13.29-30.22,20-10.35,6.9-20.63,13.88-31,20.8Q22.35,587.27,5.63,598.41C4.74,599,3.7,599.44,3.6,600.72Z"/><path class="cls-3" d="M960.43,600.72H543.17c-.62-2.27-.07-4.52.1-6.77.13-1.79.42-3.57.54-5.36.69-9.78,2.13-19.49,3.19-29.23.78-7.13,1.89-14.24,2.33-21.39.53-8.73,1.9-17.36,2.7-26.06.76-8.22,2-16.38,2.67-24.62.74-9.05,1.87-18.08,2.87-27.11.84-7.48,2-14.93,2.54-22.44.69-10.52,2.07-21,3.3-31.41,1.21-10.22,2-20.48,3.22-30.69.67-5.34,1.11-10.7,1.71-16.05.84-7.36,2.09-14.69,2.54-22.07.51-8.5,1.88-16.89,2.49-25.36a8.92,8.92,0,0,1,1-4.06,10,10,0,0,1,1.15.63c8.2,6.22,16.36,12.47,24.57,18.66,13.28,10,26.61,20,39.88,30q30.49,23,60.95,46.14,28.49,21.53,57,43,17.89,13.5,35.76,27.06c6.4,4.82,12.86,9.55,19.26,14.38,8.3,6.27,16.55,12.61,24.85,18.87,6.2,4.69,12.47,9.28,18.67,14,7.91,6,15.77,12.06,23.68,18s16.08,12,24.1,18.11c9.72,7.35,19.38,14.79,29.12,22.14,8.4,6.34,16.87,12.58,25.27,18.91C959.53,598.62,960.91,599.12,960.43,600.72Z"/><path class="cls-3" d="M1500.72,6.47v310.8c-7.58-1.73-15.17-3.4-22.74-5.19q-34.95-8.24-69.88-16.55L1338.22,279q-31.28-7.43-62.54-14.87-44.55-10.56-89.12-21.06c-16.19-3.82-32.4-7.58-48.57-11.49-2.34-.57-4.94-.59-7.36-2.48,2.86-1.81,5.44-3.49,8.07-5.08q15.52-9.36,31.08-18.69L1199,187.71q12.45-7.5,24.91-15c7.79-4.7,15.54-9.46,23.34-14.14,11.8-7.07,23.65-14.07,35.43-21.17,14-8.46,28-17,42.07-25.46,9.32-5.62,18.73-11.11,28-16.75,11.36-6.87,22.64-13.86,34-20.74,8.19-4.95,16.47-9.77,24.68-14.69q18.78-11.28,37.51-22.61l49.8-30C1499.39,6.75,1499.91,6.21,1500.72,6.47Z"/><path class="cls-3" d="M384.17,600.72H7.19c1.54-2.05,3.81-3.17,5.87-4.54,4.28-2.84,8.59-5.64,12.85-8.51,7.64-5.14,15.23-10.37,22.88-15.49,9.94-6.66,19.95-13.21,29.89-19.86s19.83-13.36,29.76-20c10.34-6.92,20.72-13.79,31.06-20.72,9.34-6.26,18.63-12.59,28-18.84,8.35-5.58,16.77-11.05,25.13-16.63,6.56-4.37,13-8.87,19.6-13.24,8.06-5.37,16.2-10.62,24.24-16,11.13-7.46,22.16-15.06,33.29-22.51,10-6.73,20.15-13.31,30.2-20q15.36-10.24,30.65-20.62c8.53-5.75,17-11.54,25.55-17.29,2.38-1.61,4.74-3.25,7.2-4.74,1.64-1,2.14-.71,2.25,1.18.15,2.63,0,5.28.27,7.9.84,9.89,1.81,19.76,2.65,29.64.61,7.27,1.05,14.55,1.62,21.82q1.33,17.36,2.74,34.71c.52,6.44,1.07,12.87,1.61,19.31.63,7.63,1.51,15.25,1.84,22.9.36,8.25,1.17,16.46,1.76,24.69.89,12.4,2.32,24.76,3.28,37.15.77,9.91,1.18,19.83,2.09,29.73C383.76,594,384.52,597.35,384.17,600.72Z"/><path class="cls-3" d="M1500.72,323v277.7H1337.41a7.9,7.9,0,0,0-1.28-3.33c-4.87-8.5-9.81-17-14.61-25.53-5.92-10.53-11.54-21.22-17.63-31.65-4.77-8.16-9.29-16.46-14-24.64-3.29-5.69-6.43-11.47-9.67-17.19-2.31-4.06-4.72-8.06-7-12.13-1.29-2.31-1.09-3.08.91-4.5q8.65-6.11,17.33-12.18,14.43-10.05,28.87-20.09c6.66-4.67,13.26-9.44,19.92-14.1,9.41-6.59,18.86-13.11,28.27-19.71,6.86-4.8,13.64-9.71,20.5-14.52,9.31-6.53,18.66-13,28-19.5q15.45-10.8,30.85-21.65c8.32-5.85,16.61-11.74,25-17.56Q1486.71,332.69,1500.72,323Z"/><path class="cls-3" d="M1133.81,600.72H965.47q-4.07-12.44-8.12-24.88-6.08-18.6-12.17-37.18-5.41-16.54-10.78-33.1c-3-9.34-5.91-18.71-8.94-28-1.19-3.66-1.31-3.66,2.44-4.87,4.78-1.55,9.59-3,14.38-4.56L991.83,452q40.32-13.08,80.65-26.15c16.74-5.44,33.46-10.95,50.2-16.38q32.11-10.42,64.25-20.78,10.08-3.25,20.17-6.47c.89-.28,1.89-.84,2.71-.08,1,.92.36,2-.06,3-1.17,2.77-1.85,5.7-2.88,8.5q-5.64,15.51-11.07,31.11c-3.78,10.84-7.78,21.61-11.53,32.47-3.19,9.26-6.63,18.44-9.82,27.72-3.65,10.63-7.68,21.13-11.22,31.81-2.3,6.92-5,13.72-7.48,20.57-.66,1.8-1.44,3.56-2,5.39-3.56,11.68-8.2,23-12,34.57-2.23,6.83-4.82,13.54-7.26,20.29A8.72,8.72,0,0,0,1133.81,600.72Z"/><path class="cls-3" d="M964.75.72h210.79c.24,1.35-.58,2.32-1.35,3.17-1.94,2.14-3.51,4.55-5.31,6.76-6,7.42-11.8,15.06-17.72,22.57-4.44,5.63-9,11.2-13.36,16.87-6,7.74-11.88,15.59-17.9,23.31s-12.2,15.34-18.24,23.06q-13.8,17.67-27.49,35.41a8,8,0,0,1-4.35,2.93c-5,1.5-10,3.17-15.07,4.72q-25.59,7.88-51.17,15.72Q966,166.85,928.44,178.52c-22.77,7-45.51,14.14-68.31,21.08-6.29,1.92-12.44,4.34-18.91,5.66l-.48-.48a4.85,4.85,0,0,1,1.18-2.93c4.83-7.69,9.67-15.38,14.44-23.12s9.4-15.51,14.14-23.25c4.31-7,8.71-14,13-21q9.78-15.87,19.49-31.78,8.24-13.44,16.47-26.89c4.07-6.62,8.23-13.19,12.27-19.82,6.16-10.09,12.21-20.25,18.37-30.33,4.49-7.34,9.1-14.6,13.64-21.91A4.28,4.28,0,0,0,964.75.72Z"/><path class="cls-4" d="M841.22,205.26c6.47-1.32,12.62-3.74,18.91-5.66,22.8-6.94,45.54-14,68.31-21.08q37.57-11.64,75.14-23.28,25.57-7.89,51.17-15.72c5-1.55,10-3.22,15.07-4.72a8,8,0,0,0,4.35-2.93q13.69-17.75,27.49-35.41c6-7.72,12.21-15.33,18.24-23.06s11.9-15.57,17.9-23.31c4.4-5.67,8.92-11.24,13.36-16.87,5.92-7.51,11.68-15.15,17.72-22.57,1.8-2.21,3.37-4.62,5.31-6.76.77-.85,1.59-1.82,1.35-3.17h4.32a6.09,6.09,0,0,1-.6,1.29C1174,8.49,1169,15.2,1163.82,21.8c-8.45,10.85-17.16,21.49-25.57,32.36q-10.43,13.47-21,26.86c-6.3,8-12.4,16.09-18.66,24.09-6.48,8.29-13.05,16.51-19.57,24.76a1.28,1.28,0,0,0-.24,1.76c1.72.15,3.36-.64,5-1.16q25.22-7.81,50.42-15.67,36.88-11.4,73.79-22.75c15-4.63,30-9.32,44.94-14q36.88-11.38,73.78-22.74,22.31-6.9,44.6-13.84,31.9-9.87,63.83-19.7c12-3.7,24-7.34,36-11.07,9.83-3.06,19.63-6.2,29.45-9.31v5c-.81-.26-1.33.28-1.94.65l-49.8,30q-18.75,11.31-37.51,22.61c-8.21,4.92-16.49,9.74-24.68,14.69-11.36,6.88-22.64,13.87-34,20.74-9.31,5.64-18.72,11.13-28,16.75-14,8.46-28,17-42.07,25.46-11.78,7.1-23.63,14.1-35.43,21.17-7.8,4.68-15.55,9.44-23.34,14.14q-12.44,7.51-24.91,15l-29.22,17.58q-15.54,9.35-31.08,18.69c-2.63,1.59-5.21,3.27-8.07,5.08,2.42,1.89,5,1.91,7.36,2.48,16.17,3.91,32.38,7.67,48.57,11.49q44.57,10.51,89.12,21.06,31.27,7.4,62.54,14.87l69.88,16.57q34.94,8.28,69.88,16.55c7.57,1.79,15.16,3.46,22.74,5.19V323q-14,9.71-28,19.42c-8.34,5.82-16.63,11.71-25,17.56q-15.4,10.85-30.85,21.65c-9.31,6.51-18.66,13-28,19.5-6.86,4.81-13.64,9.72-20.5,14.52-9.41,6.6-18.86,13.12-28.27,19.71-6.66,4.66-13.26,9.43-19.92,14.1q-14.41,10.08-28.87,20.09-8.68,6.06-17.33,12.18c-2,1.42-2.2,2.19-.91,4.5,2.29,4.07,4.7,8.07,7,12.13,3.24,5.72,6.38,11.5,9.67,17.19,4.73,8.18,9.25,16.48,14,24.64,6.09,10.43,11.71,21.12,17.63,31.65,4.8,8.55,9.74,17,14.61,25.53a7.9,7.9,0,0,1,1.28,3.33h-3.6c-2.5-5.83-6.09-11.08-9.07-16.66-4.38-8.22-9.28-16.18-13.76-24.35-1.9-3.47-4-6.83-5.89-10.28-4.21-7.64-8.39-15.3-12.67-22.91-4.57-8.13-9.27-16.18-13.86-24.31-6.29-11.13-12.51-22.31-18.79-33.46-2.87-5.11-5.85-10.16-8.73-15.27-4.39-7.81-8.71-15.66-13.11-23.47-2.82-5-5.75-9.95-8.57-14.95-4.81-8.55-9.56-17.12-14.36-25.67-.44-.79-.75-2-2-1.75s-1.22,1.38-1.55,2.25c-1.68,4.35-3.16,8.77-4.67,13.19-3.49,10.18-7.2,20.29-10.7,30.47-3.42,9.95-7,19.83-10.51,29.76q-3.76,10.85-7.7,21.64c-4,11-7.88,22.08-11.78,33.14-3.22,9.13-6.38,18.28-9.61,27.41-2.43,6.88-5,13.73-7.39,20.61q-4.86,13.7-9.63,27.44c-.81,2.35-2.28,4.52-2.08,7.17h-3.6a8.72,8.72,0,0,1,.68-3.14c2.44-6.75,5-13.46,7.26-20.29,3.8-11.59,8.44-22.89,12-34.57.56-1.83,1.34-3.59,2-5.39,2.51-6.85,5.18-13.65,7.48-20.57,3.54-10.68,7.57-21.18,11.22-31.81,3.19-9.28,6.63-18.46,9.82-27.72,3.75-10.86,7.75-21.63,11.53-32.47q5.43-15.6,11.07-31.11c1-2.8,1.71-5.73,2.88-8.5.42-1,1-2.07.06-3-.82-.76-1.82-.2-2.71.08q-10.1,3.22-20.17,6.47-32.13,10.38-64.25,20.78c-16.74,5.43-33.46,10.94-50.2,16.38Q1032.16,439,991.83,452l-49.55,16.07c-4.79,1.54-9.6,3-14.38,4.56-3.75,1.21-3.63,1.21-2.44,4.87,3,9.33,5.93,18.7,8.94,28q5.34,16.56,10.78,33.1,6.08,18.58,12.17,37.18,4.06,12.43,8.12,24.88h-5c.48-1.6-.9-2.1-1.77-2.75-8.4-6.33-16.87-12.57-25.27-18.91-9.74-7.35-19.4-14.79-29.12-22.14-8-6.07-16.09-12-24.1-18.11s-15.77-12-23.68-18c-6.2-4.69-12.47-9.28-18.67-14-8.3-6.26-16.55-12.6-24.85-18.87-6.4-4.83-12.86-9.56-19.26-14.38Q775.8,460,758,446.49q-28.5-21.51-57-43-30.49-23-60.95-46.14c-13.27-10-26.6-20-39.88-30-8.21-6.19-16.37-12.44-24.57-18.66a10,10,0,0,0-1.15-.63,8.92,8.92,0,0,0-1,4.06c-.61,8.47-2,16.86-2.49,25.36-.45,7.38-1.7,14.71-2.54,22.07-.6,5.35-1,10.71-1.71,16.05-1.26,10.21-2,20.47-3.22,30.69-1.23,10.45-2.61,20.89-3.3,31.41-.49,7.51-1.7,15-2.54,22.44-1,9-2.13,18.06-2.87,27.11-.67,8.24-1.91,16.4-2.67,24.62-.8,8.7-2.17,17.33-2.7,26.06-.44,7.15-1.55,14.26-2.33,21.39-1.06,9.74-2.5,19.45-3.19,29.23-.12,1.79-.41,3.57-.54,5.36-.17,2.25-.72,4.5-.1,6.77H536c.66-1.24-.24-2-.86-2.86-2.19-3-4.4-6-6.5-9-6.53-9.44-13.33-18.68-20-28-7.13-10-14.32-20-21.47-30-5.22-7.3-10.33-14.67-15.66-21.89-4.54-6.15-8.84-12.48-13.41-18.62-6.14-8.23-11.74-16.87-17.77-25.18-5.41-7.45-10.72-15-16.05-22.46-5.95-8.38-12.08-16.64-18.06-25-4.94-6.9-9.75-13.88-14.67-20.8-5.27-7.4-10.55-14.8-15.92-22.13a53.09,53.09,0,0,0-5.58-7.11,6,6,0,0,0-.39,3.78c.41,5,1.08,10,1.29,15,.42,9.81,1.32,19.58,2.12,29.36.93,11.45,1.95,22.88,2.9,34.33s1.59,22.92,2.42,34.39q.71,9.66,1.58,19.32c.76,8.34,1.61,16.68,2,25.05.19,3.82.36,7.65.69,11.47.84,9.77,1.83,19.53,2.65,29.3.87,10.37,1.62,20.75,2.43,31.13h-3.6c.35-3.37-.41-6.69-.71-10-.91-9.9-1.32-19.82-2.09-29.73-1-12.39-2.39-24.75-3.28-37.15-.59-8.23-1.4-16.44-1.76-24.69-.33-7.65-1.21-15.27-1.84-22.9-.54-6.44-1.09-12.87-1.61-19.31q-1.39-17.35-2.74-34.71c-.57-7.27-1-14.55-1.62-21.82-.84-9.88-1.81-19.75-2.65-29.64-.22-2.62-.12-5.27-.27-7.9-.11-1.89-.61-2.17-2.25-1.18-2.46,1.49-4.82,3.13-7.2,4.74-8.52,5.75-17,11.54-25.55,17.29Q315.28,394,300,404.33c-10.05,6.7-20.17,13.28-30.2,20-11.13,7.45-22.16,15.05-33.29,22.51-8,5.4-16.18,10.65-24.24,16-6.56,4.37-13,8.87-19.6,13.24-8.36,5.58-16.78,11.05-25.13,16.63-9.36,6.25-18.65,12.58-28,18.84-10.34,6.93-20.72,13.8-31.06,20.72-9.93,6.66-19.82,13.38-29.76,20s-20,13.2-29.89,19.86c-7.65,5.12-15.24,10.35-22.88,15.49-4.26,2.87-8.57,5.67-12.85,8.51-2.06,1.37-4.33,2.49-5.87,4.54H3.6c.1-1.28,1.14-1.72,2-2.31Q22.34,587.25,39,576.06c10.33-6.92,20.61-13.9,31-20.8,10-6.7,20.19-13.26,30.22-20,13.22-8.87,26.35-17.86,39.56-26.74,9.23-6.2,18.56-12.27,27.81-18.45,10.85-7.24,21.64-14.54,32.47-21.79,9.45-6.33,18.93-12.61,28.37-18.93,10.23-6.86,20.42-13.79,30.67-20.62,10-6.7,20.16-13.29,30.21-20,9.54-6.37,19-12.87,28.55-19.26,11.43-7.66,22.9-15.25,34.35-22.87,3.09-2.05,6.21-4.06,9.27-6.15,2.41-1.66,2.44-1.78.74-4.19-5.51-7.82-11.07-15.6-16.6-23.41-4.42-6.24-8.78-12.53-13.24-18.74-4.25-5.93-8.61-11.77-12.88-17.68s-8.47-11.88-12.72-17.81c-4.87-6.8-9.8-13.57-14.64-20.39-4.57-6.44-9-13-13.58-19.39-2.63-3.7-5.46-7.26-8.11-10.95-3.56-5-7-10-10.54-15q-9.54-13.47-19.1-26.91c-1-1.36-2-2.66-2.93-3.89-1.42,0-1.68,1.11-2.29,1.76-7.39,8-14.21,16.47-21.35,24.68-4.23,4.87-8.52,9.69-12.79,14.53-7,8-14,16.06-20.94,24.09-4.15,4.79-8.34,9.54-12.5,14.33q-9.15,10.56-18.27,21.15c-4.79,5.51-9.61,11-14.39,16.51-6,6.95-11.89,14-18.06,20.85-5.79,6.39-11.33,13-17,19.46-5.18,5.95-10.23,12-15.41,18-4.15,4.78-8.39,9.49-12.59,14.24-6.64,7.52-13.29,15-19.59,22.87-1.94,2.42-4.2,4.56-6.19,7-4.35,5.24-9.07,10.17-13.54,15.3-6.44,7.39-12.81,14.84-19.2,22.27Q8.53,445.24,3.3,451.38a5.36,5.36,0,0,1-2.58,1.86v-5c1.54.46,2.16-.82,2.89-1.66,4.23-4.86,8.36-9.81,12.59-14.68C23,424,29.9,416.2,36.72,408.36c7.61-8.75,15.16-17.55,22.77-26.3,4.46-5.14,9-10.23,13.46-15.38q12.22-14.08,24.41-28.22c6-6.86,12-13.68,17.93-20.54q12.57-14.49,25.12-29c4.31-5,8.68-9.88,13-14.85q12.57-14.49,25.11-29c4.24-4.87,8.58-9.65,12.78-14.55,9.05-10.52,18.05-21.07,27.31-31.41,1.92-2.13,3.64-4.43,5.69-6.45.78-.77,1.26-1.62.51-2.79a6.06,6.06,0,0,0-1.1.52c-8.75,6.68-17.47,13.41-26.25,20.05-8.2,6.21-16.5,12.3-24.71,18.5-9.73,7.35-19.4,14.8-29.14,22.14-8.5,6.41-17.09,12.69-25.59,19.11-9.73,7.35-19.38,14.83-29.11,22.19-8.1,6.13-16.31,12.14-24.42,18.27-9.73,7.36-19.39,14.82-29.11,22.2-8.49,6.43-16.95,12.9-25.55,19.17-3,2.17-5.46,5.07-9.1,6.26v-3.59c1.24.45,2.09-.41,2.9-1q16.1-12,32.14-24.17,20.48-15.47,40.91-31c6.11-4.62,12.26-9.19,18.37-13.8q12.6-9.53,25.16-19.08c6.21-4.69,12.45-9.32,18.64-14,7.82-5.92,15.6-11.9,23.43-17.8,6.59-5,13.26-9.84,19.84-14.82,9.73-7.36,19.4-14.79,29.11-22.18,6.95-5.29,13.89-10.6,20.92-15.78,1.39-1,1.78-1.88,1.23-3.56-1.87-5.69-3.53-11.44-5.29-17.16A102,102,0,0,1,225,150c-.44-2.21-1.42-4.32-2.08-6.5-.53-1.71-1.59-2.28-3.28-1.78-.46.13-.93.24-1.4.34l-59,12.42L80.81,170.83q-30.06,6.28-60.11,12.58c-6.67,1.4-13.32,2.9-20,4.36v-2.88a5.61,5.61,0,0,0,3.53,0q21.09-4.43,42.16-8.9,31.08-6.57,62.18-13.15,34.78-7.32,69.59-14.56,20-4.2,40-8.45c3-.63,2.91-.7,2.27-3.54-1.67-7.37-4.46-14.39-6.6-21.62-3.66-12.4-7.85-24.64-11.37-37.09a6.83,6.83,0,0,0-4.95-5c-7.36-2.52-14.67-5.2-22-7.82q-34.5-12.34-69-24.71-26.37-9.45-52.73-19C42.46,17,31.1,12.81,19.71,8.74,13.4,6.48,7.05,4.35.72,2.16,1,1.71,0,.65,1.44.71c1.2.05,2.4,0,3.6,0,.27,1,1.2,1.09,2,1.36Q36.93,12.81,66.87,23.49c11.28,4,22.58,8,33.85,12q32,11.44,63.91,22.94,19.6,7.05,39.25,14c8,2.84,16,5.84,24,8.74,22.63,8.2,45.31,16.27,68,24.38,6.43,2.3,12.85,4.62,19.3,6.86,2.1.73,2.58.19,2-2a9.53,9.53,0,0,0-.5-1.35c-3.23-7.48-5.57-15.29-8.45-22.9-3.39-9-6.48-18-9.74-27-2.65-7.32-5.38-14.6-8-21.93-2.35-6.52-4.55-13.1-6.95-19.61-2.07-5.61-4.41-11.12-5.78-17h3.59c-.51,1.14.14,2.1.5,3.09.89,2.48,1.87,4.93,2.75,7.41,4,11.28,7.81,22.62,12,33.83,3.55,9.53,6.8,19.17,10.36,28.69,4.62,12.34,8.81,24.82,13.43,37.16,1.14,3.06,1.15,3.11,4.36,2.29q25.24-6.39,50.47-12.82Q415,90.19,454.86,80C477,74.35,499.2,68.78,521.37,63.14c13.69-3.48,27.35-7.06,41-10.55q33.24-8.46,66.5-16.89c13.58-3.46,27.14-7,40.71-10.45q21.92-5.61,43.85-11.19c9.28-2.36,18.59-4.64,27.87-7,6-1.53,12.06-3.12,18.08-4.71.82-.22,2.12-.06,1.73-1.63h1.44c.48,1,1,.89,1.44,0h6.47c-.29,3,1.27,5.54,2.15,8.24q5,15.38,10,30.72t10,30.73q5.79,17.76,11.59,35.51,5,15.36,10,30.72,6,18.44,12.07,36.84c3.07,9.45,6.06,18.91,9.1,28.37.21.66.33,1.48,1.14,1.68s1.24-.53,1.63-1.11c.54-.8,1.07-1.59,1.57-2.41l18.38-30.36q5.11-8.43,10.28-16.84,10.91-17.73,21.85-35.44,9.13-14.82,18.24-29.64,10.61-17.26,21.21-34.55c2.38-3.86,4.81-7.7,7.19-11.57,6.94-11.31,13.9-22.61,20.76-34,1.33-2.2,3.05-4.25,3.48-6.92h3.6a4.28,4.28,0,0,1-1,3c-4.54,7.31-9.15,14.57-13.64,21.91C944,35.71,937.92,45.87,931.76,56c-4,6.63-8.2,13.2-12.27,19.82Q911.23,89.21,903,102.67q-9.74,15.9-19.49,31.78c-4.32,7-8.72,14-13,21-4.74,7.74-9.38,15.53-14.14,23.25s-9.61,15.43-14.44,23.12a4.85,4.85,0,0,0-1.18,2.93c-.11.18-.37.45-.32.53C840.68,205.73,841,205.51,841.22,205.26ZM325.79,300.08c.22,1.37,1.22,2.18,2.19,3a1.47,1.47,0,0,0,.6,1.29,5.81,5.81,0,0,0,2.29,3c.77,1.9,2.2,3.34,3.41,4.94a6.28,6.28,0,0,0,2.33,3,.67.67,0,0,0,.22.51,5.35,5.35,0,0,0,1.94,2.37,1.51,1.51,0,0,0,.6,1.29,5.77,5.77,0,0,0,2.29,3,22.46,22.46,0,0,0,3.42,4.94,6.18,6.18,0,0,0,2.33,3,.73.73,0,0,0,.21.52,5.38,5.38,0,0,0,1.94,2.36c1.31,3.62,4.24,6.13,6.32,9.23l6.1,8.86a14.32,14.32,0,0,0-.88-7.5c-.3-2.16-.61-4.32-.91-6.48a1.42,1.42,0,0,0-.36-1.5l-.21-1.38a2.55,2.55,0,0,0-.51-2.21c-.07-.47-.15-.93-.22-1.39a2.47,2.47,0,0,0-.52-2.2l-.21-1.4a2.42,2.42,0,0,0-.52-2.19l-.2-1.4a2.43,2.43,0,0,0-.52-2.2l-.21-1.4a2.41,2.41,0,0,0-.51-2.2l-.33-2.12a1.35,1.35,0,0,0-.4-1.47l-.72-4.27c-.66-7.37-2.44-14.53-4.24-21.67-.36-2.37-.71-4.75-1.07-7.12a2.38,2.38,0,0,0-.41-2.21l-.21-1.39a2.5,2.5,0,0,0-.51-2.2l-.22-1.39a2.41,2.41,0,0,0-.52-2.2c-.07-.47-.14-.94-.2-1.4a2.48,2.48,0,0,0-.52-2.2l-.22-1.4a2.41,2.41,0,0,0-.5-2.2l-.22-1.4a2.36,2.36,0,0,0-.51-2.19l-.33-2.12a1.31,1.31,0,0,0-.4-1.47c-.24-1.42-.47-2.85-.71-4.28a140.1,140.1,0,0,0-4.25-21.66c-.36-2.38-.71-4.75-1.06-7.13a2.29,2.29,0,0,0-.43-2.19l-.21-1.4a2.4,2.4,0,0,0-.51-2.2c-.07-.47-.13-.93-.2-1.4a2.48,2.48,0,0,0-.52-2.2l-.22-1.4a2.36,2.36,0,0,0-.51-2.19l-.21-1.4a2.44,2.44,0,0,0-.51-2.2l-.21-1.4a2.37,2.37,0,0,0-.52-2.18l-.22-1.42a2.32,2.32,0,0,0-.51-2.18,11.67,11.67,0,0,0-.66-3.56c-.51-7.64-2.6-15-4.29-22.39l-1.06-7.12a2.33,2.33,0,0,0-.43-2.2l-.21-1.4a2.44,2.44,0,0,0-.51-2.2l-.21-1.39a2.4,2.4,0,0,0-.51-2.2l-.21-1.4a2.41,2.41,0,0,0-.51-2.2c-.08-.46-.15-.93-.22-1.4a2.37,2.37,0,0,0-.52-2.19l-.2-1.4a2.38,2.38,0,0,0-.51-2.2c-.11-.71-.22-1.41-.32-2.12a1.3,1.3,0,0,0-.4-1.47l-.72-4.28c0-.48-.08-1-.13-1.44l-.15-1.44a2.89,2.89,0,0,0-.53-2.16l-.18-1.44a2.94,2.94,0,0,0-.53-2.15c-.07-.49-.13-1-.19-1.45a3,3,0,0,0-.53-2.15L320,125.9a3,3,0,0,0-.52-2.16l-.17-1.44a3.35,3.35,0,0,0-1.34-3c-1,1.18-2.69,1.6-3.65,3a11.73,11.73,0,0,0-1.56.86c-7,5.23-14,10.38-20.83,15.74-3.56,2.79-7.42,5.2-10.67,8.38a3.08,3.08,0,0,0-2.09,1.68c-1,.63-2.05,1.2-3,1.91-7.36,5.49-14.79,10.88-22,16.56-4.11,3.23-8.56,6-12.37,9.65-3.41,1.81-3.42,1.82-.84,4.49,2.11,4.54,5.66,8.06,8.52,12.07a5.82,5.82,0,0,0,2.3,3c1.59,3.74,4.64,6.49,6.72,9.89-.15,1.43,1.19,1.64,1.92,2.34a.71.71,0,0,0,.24.54,4.57,4.57,0,0,0,1.93,2.29c1.45,3.84,4.72,6.46,6.71,9.94a6.49,6.49,0,0,0,2.61,3h0c.21,1.38,1.21,2.19,2.18,3a7,7,0,0,0,2.76,4.15,5.88,5.88,0,0,0,2.3,3,3.6,3.6,0,0,0,1,2,6.45,6.45,0,0,0,2.59,3h0a5.27,5.27,0,0,0,2.18,3,6.92,6.92,0,0,0,2.78,4.14,5.72,5.72,0,0,0,2.28,3,3.74,3.74,0,0,0,1,2,6.43,6.43,0,0,0,2.59,3h0c.21,1.39,1.22,2.19,2.19,3a7,7,0,0,0,2.76,4.16,5.87,5.87,0,0,0,2.29,3,1.53,1.53,0,0,0,.73,1.28,6.29,6.29,0,0,0,2.85,3.66h0a5.16,5.16,0,0,0,2.19,3,2.85,2.85,0,0,0,.94,1.93,5,5,0,0,0,1.95,2.35c.77,1.9,2.21,3.34,3.41,4.93A5.11,5.11,0,0,0,315,285h0c.21,1.38,1.21,2.19,2.18,3a3,3,0,0,0,.95,1.94,5,5,0,0,0,1.94,2.35c.78,1.89,2.21,3.34,3.42,4.93a5.07,5.07,0,0,0,2.33,2.87ZM206,76.05l-.57-.19.21.56c1,5.16,2.89,10.11,4.45,15.11,5.54,17.69,11.09,35.38,16.47,53.13,3,10,6.31,19.84,9.52,29.74.28.84.23,1.92,1.24,2.48,2.35-.79,3.93-2.66,5.82-4.07q17.67-13.22,35.33-26.45,18.61-14,37.19-28.11c.75-.57,1.86-1,1.59-2.12-.22-.92-1.26-1-2-1.27L254,92.86c-11.71-4.21-23.39-8.49-35.14-12.6C214.61,78.77,210.46,76.85,206,76.05Zm925.21,156.09c-.24-.24-.5-.43-.74,0-.05.07.19.32.3.49,3.74,8.7,9.09,16.53,13.54,24.85,5,9.27,10.42,18.28,15.45,27.52,5.49,10.08,11.3,20,17,30,3.07,5.4,6.17,10.8,9.23,16.22q6.51,11.56,13,23.17c3.08,5.53,6.07,11.12,9.25,16.6,1.15,2,2,4.23,3.91,5.8,1-1.34.84-2.7.92-4,.1-1.68.2-3.34.43-5q1.71-12.26,3.24-24.54c.87-7,1.54-14,2.44-21,1.29-10,2.8-19.89,4-29.85.93-7.6,1.54-15.23,2.74-22.79.66-4.13,1.05-8.31,1.63-12.45a2.16,2.16,0,0,0-2-2.79c-.47-.08-.92-.24-1.39-.35-25.95-6.18-51.89-12.43-77.87-18.5C1141.23,234.25,1136.32,232.6,1131.16,232.14Zm-551,68.15c3.2-.59,6.13-2,9.15-3.12q20.91-7.71,41.78-15.47l55.23-20.53q22.73-8.45,45.47-16.86c17.06-6.35,34.1-12.76,51.16-19.11q23.91-8.89,47.84-17.73c2.84-1.05,2.94-1.28,2-4.2-3.08-9.57-6.13-19.14-9.29-28.68-3.53-10.68-7.06-21.36-10.45-32.08-4.11-13-8.46-26-12.75-38.92-2.6-7.84-5.11-15.71-7.75-23.54-4.13-12.25-7.73-24.67-11.82-36.93-3.68-11-7.31-22-10.67-33.16-.28-.92-.59-1.83-.94-2.72s-1-1-1.66-.42a8,8,0,0,0-1.35,1.66c-6,9.39-11.76,18.88-17.88,28.15-7.46,11.28-14.66,22.73-21.92,34.13-8.86,13.92-17.64,27.9-26.72,41.68-5.52,8.39-10.89,16.89-16.3,25.36q-10.82,16.94-21.67,33.84c-5.36,8.35-10.77,16.67-16.13,25q-10.65,16.6-21.27,33.25-8.43,13.13-16.91,26.23c-6.48,10.06-13.08,20.05-19.42,30.2-2.78,4.45-6.11,8.57-8.26,13.41-.12.2-.38.48-.32.57C579.54,300.76,579.85,300.54,580.13,300.29ZM1070.3,137.2a7.56,7.56,0,0,0-2.82.46q-13,4-26.09,8l-84.78,26.25q-29.18,9-58.36,18-17,5.25-34,10.46c-7.89,2.44-15.79,4.87-23.66,7.36-2.71.86-2.71,1-1.89,3.49q5.13,15.89,10.32,31.77c3.71,11.38,7.47,22.75,11.14,34.14,4.51,14,8.79,28.1,13.47,42.06,3.74,11.12,7.16,22.34,10.94,33.43,4.53,13.26,8.63,26.65,13.11,39.92,4,11.79,7.76,23.65,11.62,35.49q5.34,16.38,10.67,32.76c.59,1.82,1.11,3.67,1.67,5.5a6.33,6.33,0,0,0,.52,1.33c.48.82,1.11.88,1.64.07a13.81,13.81,0,0,0,1.17-2.22c2.39-5.48,4.79-11,7.11-16.48,4-9.59,7.95-19.23,12-28.82,4.25-10,8.65-20,12.92-30,4.74-11.12,9.37-22.29,14.11-33.41,4.46-10.46,9-20.86,13.49-31.32s8.78-21,13.23-31.43,9.08-20.84,13.47-31.33c3.15-7.51,6.29-15,9.57-22.46,5-11.27,10.63-22.24,16.1-33.28,2.6-5.26,5.1-10.56,7.74-15.8,5.49-10.91,10.66-22,16-33l10-20.68c.12-.15.36-.38.33-.43C1070.73,136.74,1070.51,137,1070.3,137.2ZM958.94,594.07a6.44,6.44,0,0,0-.34-4.56c-2.12-5.73-3.88-11.58-5.77-17.39-3.43-10.58-7-21.13-10.29-31.75-3.6-11.54-7.49-23-11.24-34.47-3.45-10.57-6.82-21.18-10.32-31.74q-8.46-25.57-16.68-51.23c-3.47-10.82-7.12-21.6-10.57-32.43-3.6-11.29-7.42-22.5-11-33.79-3.45-10.84-7.16-21.59-10.56-32.44-3.54-11.31-7.3-22.55-11-33.81Q855.9,274.25,850.6,258q-6.93-21.15-13.89-42.3c-.41-1.25-.9-2.48-1.26-3.74-1.05-3.69-1-3.7-4.5-2.48-.45.16-.89.34-1.34.51q-43.1,16-86.18,32.1-28.8,10.71-57.61,21.35-19.53,7.25-39.06,14.51-23.24,8.65-46.44,17.34c-7.41,2.77-14.82,5.5-22.21,8.3-2.54,1-2.69,1.79-.64,3.34q11.29,8.57,22.64,17.06,12.06,9.06,24.1,18.12c8.12,6.13,16.18,12.33,24.3,18.45,6.4,4.83,12.87,9.55,19.26,14.38q17.61,13.3,35.15,26.68c6.2,4.69,12.44,9.34,18.64,14,8.2,6.21,16.38,12.46,24.59,18.65,6.3,4.76,12.65,9.43,19,14.19,7.82,5.92,15.58,11.91,23.4,17.83,8,6,16.08,12,24.1,18.09,8.5,6.41,16.95,12.87,25.45,19.28,7.93,6,15.91,11.87,23.82,17.87,9.73,7.36,19.39,14.82,29.12,22.19,8.3,6.28,16.66,12.49,25,18.75q20.22,15.22,40.41,30.47A3.09,3.09,0,0,0,958.94,594.07ZM324,115.45c4.12,3.18,7.57,5.91,11.08,8.56q19,14.38,38.1,28.75t38.11,28.76Q443.65,206,476,230.41q30.38,22.92,60.78,45.8,16.92,12.74,33.84,25.47c2.49,1.87,2.88,1.84,4.45-.7,3.78-6.1,7.69-12.12,11.59-18.14,8-12.36,15.78-24.85,23.72-37.24,6.25-9.76,12.66-19.42,18.9-29.18,7.87-12.3,15.61-24.67,23.47-37,6.51-10.19,13.21-20.25,19.62-30.5,1.91-3,4-6,5.91-9,4.19-6.69,8.33-13.4,12.58-20,4.72-7.36,9.58-14.61,14.3-22C712,87.3,718.79,76.57,725.64,65.9c3.86-6,7.84-12,11.71-18,5.11-8,10.17-15.94,15.25-23.91,3.79-5.95,7.38-12,11.5-17.78.5-.7,1.08-1.51.51-2.27s-1.54-.37-2.36-.22c-.11,0-.23.07-.34.1q-22.63,5.76-45.26,11.52-38.79,9.92-77.6,19.85Q603,44.35,567,53.45q-40.38,10.27-80.75,20.63-35.67,9.09-71.37,18.11-28,7.14-56,14.33ZM570.77,309c-.07-1.9.3-3.77-1.66-5.19-5.41-3.95-10.73-8-16.08-12.07l-36.11-27.23q-20.05-15.13-40.1-30.28-12-9.09-24.11-18.13-12.6-9.53-25.18-19.07c-6.11-4.61-12.27-9.15-18.37-13.77q-17.46-13.22-34.86-26.49c-6.2-4.69-12.47-9.31-18.67-14q-12-9.1-24-18.26c-2.38-1.8-4.8-3.57-7.22-5.32-.57-.4-1.28-.86-1.95-.27a1.8,1.8,0,0,0-.32,1.7c.37,2.36.69,4.73,1.16,7.07,1.49,7.4,3.39,14.73,4.46,22.18,1.67,11.61,4.73,23,6.43,34.56,1.26,8.63,3.56,17.1,4.9,25.74,1.55,9.93,3.81,19.73,5.65,29.61,3.58,19.29,7.41,38.53,10.94,57.83,1.66,9.06,3.76,18,5.2,27.15,1.55,9.81,4.15,19.42,5.52,29.27a14.56,14.56,0,0,0,2.22,6.39c1.7,2.46,3.53,4.82,5.26,7.25,5.35,7.49,10.66,15,16,22.49,4.38,6.13,8.82,12.22,13.2,18.35,6.18,8.65,12.23,17.4,18.53,26,4.68,6.36,9.12,12.88,13.84,19.21,6.07,8.13,11.58,16.68,17.55,24.9q8.22,11.29,16.27,22.73c6.19,8.8,12.59,17.45,18.85,26.19,4.74,6.61,9.37,13.29,14.11,19.89,4.6,6.42,9.3,12.76,13.9,19.17,5,7,10,14,15,21.07,1.79,2.53,3.54,5.1,5.41,7.59.6.8,1.19,2.1,2.42,1.72s.67-1.65.78-2.55c.35-3,.62-5.95,1-8.92.86-7.36,2-14.7,2.57-22.08,1-12.18,2.39-24.3,3.86-36.42,1.32-10.93,2-21.91,3.4-32.84.62-5,1.08-10,1.65-15,.81-7.12,1.92-14.23,2.42-21.38.73-10.4,2.14-20.72,3.37-31.05,1.27-10.7,1.94-21.45,3.32-32.13.71-5.45,1.29-10.92,1.9-16.39.78-7,1.73-14,2.23-21.05.61-8.48,1.87-16.89,2.73-25.34C568.94,324.22,569.89,316.62,570.77,309ZM926.63,470.39c2.56-.13,4.5-1.07,6.52-1.73q26-8.4,52-16.73,26.67-8.62,53.33-17.29,39.32-12.74,78.63-25.48c16.4-5.33,32.78-10.72,49.19-16,13.21-4.29,26.44-8.51,39.66-12.79,3-1,3-1,1.67-3.85-.35-.76-.58-1.58-1-2.3-5.57-9.49-10.84-19.14-16.22-28.73s-10.84-18.88-16.06-28.44c-4.3-7.88-8.89-15.59-13.3-23.42-6.81-12.08-13.55-24.2-20.35-36.28-4.59-8.13-9.33-16.18-13.78-24.38-.92-1.7-1.83-2.33-3.58-2.09-.83.12-1.66.2-2.49.3-6.89.85-13.78,1.71-20.67,2.54-8.91,1.08-17.83,2.12-26.74,3.21-8.67,1.06-17.33,2.16-26,3.24-7.48.93-15,1.89-22.45,2.75a3.37,3.37,0,0,0-3.08,2.45c-3.2,7.87-6.5,15.71-9.84,23.52-4.28,10-8.68,20-12.94,30-4.74,11.12-9.35,22.29-14.09,33.4-4.55,10.68-9.24,21.3-13.79,32-4.31,10.13-8.38,20.37-12.8,30.45-3.51,8-6.83,16.08-10.27,24.1-3.73,8.69-7.51,17.35-11.13,26.08-2.8,6.74-5.89,13.37-8.8,20.07A18,18,0,0,0,926.63,470.39ZM1493.39,6.84c-.88-.84-1.77-.21-2.62,0q-10.3,3.17-20.6,6.36-36.74,11.33-73.46,22.64c-18.88,5.83-37.74,11.74-56.62,17.57q-45,13.89-89.93,27.74c-15.22,4.69-30.43,9.44-45.64,14.14q-28.14,8.72-56.29,17.38c-12,3.71-24,7.37-36.06,11.08q-16.65,5.14-33.28,10.34c-3.26,1-3.3,1.13-1.62,4.18,3.28,6,6.64,11.91,10,17.84,7.54,13.33,15.18,26.59,22.58,40,1.91,3.46,3.94,6.83,5.84,10.29,3.64,6.6,7.35,13.16,11,19.76a1.85,1.85,0,0,0,2.95.82c.72-.42,1.42-.88,2.14-1.31,8-4.84,16-9.71,24-14.52,8.2-4.94,16.44-9.81,24.64-14.76,11.58-7,23.12-14,34.7-21,8.2-4.94,16.46-9.8,24.66-14.73,10-6,19.87-12,29.82-18s19.72-11.81,29.56-17.75c12-7.24,24-14.53,35.94-21.77,11.17-6.74,22.38-13.42,33.55-20.16,9.74-5.87,19.44-11.81,29.17-17.68q15.51-9.37,31.07-18.71c11.37-6.86,22.71-13.78,34.09-20.64q14.61-8.8,29.25-17.56C1492.74,8.06,1493.53,7.83,1493.39,6.84Zm6.53,313a5.31,5.31,0,0,0-3.05-1.3c-8.85-2.09-17.69-4.23-26.54-6.32q-44.89-10.61-89.8-21.18-30.91-7.32-61.8-14.8a5.34,5.34,0,0,0-6,1.7c-8.4,9-16.93,17.92-25.44,26.84-5.37,5.63-10.82,11.18-16.2,16.81-10.91,11.44-21.92,22.77-32.74,34.28-6.4,6.8-13,13.45-19.42,20.2-.8.84-1.87,1.52-2.17,2.77a5.6,5.6,0,0,0,2.48,1.45l62.06,24.76q15.35,6.12,30.68,12.27c9.56,3.81,19.17,7.51,28.66,11.49,2.37,1,4,.52,5.89-.84q9.47-6.81,19-13.47c11.77-8.22,23.59-16.36,35.34-24.61,15-10.52,29.86-21.16,44.83-31.68,15.56-10.94,31.21-21.77,46.75-32.74C1495,323.71,1497.85,322.31,1499.92,319.84ZM1214.7,380.45c-.33,2.08.72,3.05,1.29,4.18.66,1.28,1.46,2.48,2.16,3.73,4.32,7.72,8.6,15.46,12.95,23.17,2.82,5,5.76,9.94,8.58,15,4.28,7.61,8.49,15.26,12.74,22.89q4.8,8.63,9.62,17.22c2.28,4.07,4.53,8.16,6.92,12.17,1.45,2.43,1.58,2.41,3.8.88q10.34-7.12,20.64-14.33,17.79-12.46,35.55-25l12.7-9Zm96.47-105.62a3.39,3.39,0,0,0-1.91-.81c-4.78-1.1-9.56-2.19-14.33-3.33l-60.44-14.35c-3.29-.78-3.69-.51-4.21,2.85-.09.59-.09,1.2-.15,1.79-.36,3.57-.63,7.15-1.1,10.71-1.28,9.84-2.58,19.68-4,29.51-.75,5.21-1.07,10.47-1.72,15.69q-1.47,11.75-3.24,23.46c-1.37,9.11-1.83,18.32-3.4,27.41a23.73,23.73,0,0,0-.71,6.65c1.32,0,1.76-1,2.39-1.67q12.78-13.37,25.53-26.76,11.55-12.06,23.13-24.11,12.66-13.23,25.28-26.5c5.7-6,11.44-11.9,17.11-17.89C1310.1,276.74,1311.07,276.11,1311.17,274.83Zm-285-33.84c.29-.05.87-.18,1.46-.25l27-3.28,25.64-3.11q13.71-1.68,27.41-3.37c4.39-.54,8.79-1,13.17-1.59,3.31-.46,3.44-.9,1.86-3.77q-8.4-15.24-17-30.33c-7-12.13-13.7-24.39-20.53-36.6l-10-17.83c-.35-.62-.67-1.41-1.5-1.38s-.92.94-1.22,1.56q-5.82,12.14-11.68,24.23c-4.66,9.57-9.49,19.06-14,28.71-2,4.24-4.2,8.33-6.23,12.53-2.56,5.26-4.69,10.75-7.5,15.88s-4.82,11-8,16.07a6.23,6.23,0,0,0-.41,1C1024.3,240.56,1024.76,241,1026.18,241ZM1494.81,6.41l.58-.28c-.07-.09-.14-.26-.21-.26a3.12,3.12,0,0,0-.61.11ZM321.93,117.87l.14-.25h-.24Z"/><path class="cls-3" d="M761.15.72c.39,1.57-.91,1.41-1.73,1.63-6,1.59-12,3.18-18.08,4.71-9.28,2.36-18.59,4.64-27.87,7q-21.93,5.57-43.85,11.19c-13.57,3.47-27.13,7-40.71,10.45q-33.24,8.47-66.5,16.89c-13.69,3.49-27.35,7.07-41,10.55C499.2,68.78,477,74.35,454.86,80Q415,90.14,375.16,100.37q-25.23,6.43-50.47,12.82c-3.21.82-3.22.77-4.36-2.29-4.62-12.34-8.81-24.82-13.43-37.16-3.56-9.52-6.81-19.16-10.36-28.69-4.19-11.21-8-22.55-12-33.83-.88-2.48-1.86-4.93-2.75-7.41-.36-1-1-1.95-.5-3.09Z"/><path class="cls-3" d="M.72,2.16c6.33,2.19,12.68,4.32,19,6.58C31.1,12.81,42.46,17,53.84,21.05q26.35,9.51,52.73,19,34.5,12.38,69,24.71c7.33,2.62,14.64,5.3,22,7.82a6.83,6.83,0,0,1,4.95,5c3.52,12.45,7.71,24.69,11.37,37.09,2.14,7.23,4.93,14.25,6.6,21.62.64,2.84.7,2.91-2.27,3.54q-20,4.27-40,8.45-34.8,7.29-69.59,14.56Q77.5,169.35,46.41,176q-21.07,4.46-42.16,8.9a5.61,5.61,0,0,1-3.53,0Z"/><path class="cls-3" d="M.72,187.77c6.66-1.46,13.31-3,20-4.36q30-6.33,60.11-12.58l78.39-16.38,59-12.42c.47-.1.94-.21,1.4-.34,1.69-.5,2.75.07,3.28,1.78.66,2.18,1.64,4.29,2.08,6.5a102,102,0,0,0,3.08,10.32c1.76,5.72,3.42,11.47,5.29,17.16.55,1.68.16,2.53-1.23,3.56-7,5.18-14,10.49-20.92,15.78-9.71,7.39-19.38,14.82-29.11,22.18-6.58,5-13.25,9.85-19.84,14.82-7.83,5.9-15.61,11.88-23.43,17.8-6.19,4.7-12.43,9.33-18.64,14Q107.62,275.14,95,284.69c-6.11,4.61-12.26,9.18-18.37,13.8q-20.47,15.5-40.91,31-16,12.13-32.14,24.17c-.81.61-1.66,1.47-2.9,1Z"/><path class="cls-3" d="M1500.72,1.44c-9.82,3.11-19.62,6.25-29.45,9.31-12,3.73-24,7.37-36,11.07q-31.92,9.83-63.83,19.7-22.31,6.9-44.6,13.84Q1289.91,66.75,1253,78.1c-15,4.63-30,9.32-44.94,14q-36.88,11.4-73.79,22.75-25.21,7.8-50.42,15.67c-1.67.52-3.31,1.31-5,1.16a1.28,1.28,0,0,1,.24-1.76c6.52-8.25,13.09-16.47,19.57-24.76C1104.9,97.11,1111,89,1117.3,81q10.56-13.36,21-26.86c8.41-10.87,17.12-21.51,25.57-32.36C1169,15.2,1174,8.49,1179.26,2a6.09,6.09,0,0,0,.6-1.29q158.81,0,317.62,0C1498.53.76,1499.92-.07,1500.72,1.44Z"/><path class="cls-3" d="M1137.41,600.72c-.2-2.65,1.27-4.82,2.08-7.17q4.76-13.74,9.63-27.44c2.44-6.88,5-13.73,7.39-20.61,3.23-9.13,6.39-18.28,9.61-27.41C1170,507,1173.9,496,1177.9,485q3.93-10.79,7.7-21.64c3.46-9.93,7.09-19.81,10.51-29.76,3.5-10.18,7.21-20.29,10.7-30.47,1.51-4.42,3-8.84,4.67-13.19.33-.87.45-2,1.55-2.25s1.53,1,2,1.75c4.8,8.55,9.55,17.12,14.36,25.67,2.82,5,5.75,9.94,8.57,14.95,4.4,7.81,8.72,15.66,13.11,23.47,2.88,5.11,5.86,10.16,8.73,15.27,6.28,11.15,12.5,22.33,18.79,33.46,4.59,8.13,9.29,16.18,13.86,24.31,4.28,7.61,8.46,15.27,12.67,22.91,1.91,3.45,4,6.81,5.89,10.28,4.48,8.17,9.38,16.13,13.76,24.35,3,5.58,6.57,10.83,9.07,16.66Z"/><path class="cls-3" d="M961.15.72c-.43,2.67-2.15,4.72-3.48,6.92-6.86,11.36-13.82,22.66-20.76,34-2.38,3.87-4.81,7.71-7.19,11.57Q919.1,70.44,908.51,87.73q-9.1,14.82-18.24,29.64-10.92,17.72-21.85,35.44-5.17,8.4-10.28,16.84L839.76,200c-.5.82-1,1.61-1.57,2.41-.39.58-.76,1.33-1.63,1.11s-.93-1-1.14-1.68c-3-9.46-6-18.92-9.1-28.37q-6-18.42-12.07-36.84-5-15.36-10-30.72-5.79-17.76-11.59-35.51-5-15.36-10-30.73T772.65,9c-.88-2.7-2.44-5.23-2.15-8.24Z"/><path class="cls-3" d="M387.77,600.72c-.81-10.38-1.56-20.76-2.43-31.13-.82-9.77-1.81-19.53-2.65-29.3-.33-3.82-.5-7.65-.69-11.47-.43-8.37-1.28-16.71-2-25.05q-.87-9.66-1.58-19.32c-.83-11.47-1.46-22.94-2.42-34.39s-2-22.88-2.9-34.33c-.8-9.78-1.7-19.55-2.12-29.36-.21-5-.88-10-1.29-15a6,6,0,0,1,.39-3.78,53.09,53.09,0,0,1,5.58,7.11c5.37,7.33,10.65,14.73,15.92,22.13,4.92,6.92,9.73,13.9,14.67,20.8,6,8.36,12.11,16.62,18.06,25,5.33,7.5,10.64,15,16.05,22.46,6,8.31,11.63,16.95,17.77,25.18,4.57,6.14,8.87,12.47,13.41,18.62,5.33,7.22,10.44,14.59,15.66,21.89,7.15,10,14.34,20,21.47,30,6.65,9.35,13.45,18.59,20,28,2.1,3,4.31,6,6.5,9,.62.85,1.52,1.62.86,2.86Z"/><path class="cls-3" d="M277.7.72c1.37,5.84,3.71,11.35,5.78,17,2.4,6.51,4.6,13.09,6.95,19.61,2.63,7.33,5.36,14.61,8,21.93,3.26,9,6.35,18.06,9.74,27,2.88,7.61,5.22,15.42,8.45,22.9a9.53,9.53,0,0,1,.5,1.35c.55,2.15.07,2.69-2,2-6.45-2.24-12.87-4.56-19.3-6.86-22.66-8.11-45.34-16.18-68-24.38-8-2.9-16-5.9-24-8.74q-19.63-7-39.25-14Q132.68,47,100.72,35.53c-11.27-4-22.57-8-33.85-12Q36.93,12.8,7,2.08C6.24,1.81,5.31,1.71,5,.72Z"/><path class="cls-3" d="M.72,358.27c3.64-1.19,6.13-4.09,9.1-6.26,8.6-6.27,17.06-12.74,25.55-19.17,9.72-7.38,19.38-14.84,29.11-22.2,8.11-6.13,16.32-12.14,24.42-18.27,9.73-7.36,19.38-14.84,29.11-22.19,8.5-6.42,17.09-12.7,25.59-19.11,9.74-7.34,19.41-14.79,29.14-22.14,8.21-6.2,16.51-12.29,24.71-18.5,8.78-6.64,17.5-13.37,26.25-20.05a6.06,6.06,0,0,1,1.1-.52c.75,1.17.27,2-.51,2.79-2,2-3.77,4.32-5.69,6.45-9.26,10.34-18.26,20.89-27.31,31.41-4.2,4.9-8.54,9.68-12.78,14.55q-12.58,14.49-25.11,29c-4.31,5-8.68,9.88-13,14.85q-12.58,14.47-25.12,29c-6,6.86-12,13.68-17.93,20.54Q85.14,352.56,73,366.68c-4.46,5.15-9,10.24-13.46,15.38-7.61,8.75-15.16,17.55-22.77,26.3C29.9,416.2,23,424,16.2,431.86c-4.23,4.87-8.36,9.82-12.59,14.68-.73.84-1.35,2.12-2.89,1.66Z"/><path class="cls-3" d="M764,.72c-.48.89-1,1-1.44,0Z"/><path class="cls-3" d="M958.94,594.07a3.09,3.09,0,0,1-2.57-1.07Q936.17,577.78,916,562.53c-8.31-6.26-16.67-12.47-25-18.75-9.73-7.37-19.39-14.83-29.12-22.19-7.91-6-15.89-11.9-23.82-17.87-8.5-6.41-16.95-12.87-25.45-19.28-8-6.05-16.09-12-24.1-18.09-7.82-5.92-15.58-11.91-23.4-17.83-6.3-4.76-12.65-9.43-19-14.19-8.21-6.19-16.39-12.44-24.59-18.65-6.2-4.69-12.44-9.34-18.64-14Q685.34,388.32,667.77,375c-6.39-4.83-12.86-9.55-19.26-14.38-8.12-6.12-16.18-12.32-24.3-18.45s-16.06-12.08-24.1-18.12Q588.78,315.5,577.47,307c-2.05-1.55-1.9-2.38.64-3.34,7.39-2.8,14.8-5.53,22.21-8.3q23.22-8.65,46.44-17.34,19.53-7.28,39.06-14.51,28.8-10.68,57.61-21.35,43.1-16,86.18-32.1c.45-.17.89-.35,1.34-.51,3.47-1.22,3.45-1.21,4.5,2.48.36,1.26.85,2.49,1.26,3.74q6.94,21.15,13.89,42.3,5.31,16.2,10.59,32.43c3.67,11.26,7.43,22.5,11,33.81,3.4,10.85,7.11,21.6,10.56,32.44,3.59,11.29,7.41,22.5,11,33.79,3.45,10.83,7.1,21.61,10.57,32.43q8.22,25.67,16.68,51.23c3.5,10.56,6.87,21.17,10.32,31.74,3.75,11.49,7.64,22.93,11.24,34.47,3.32,10.62,6.86,21.17,10.29,31.75,1.89,5.81,3.65,11.66,5.77,17.39A6.44,6.44,0,0,1,958.94,594.07Z"/><path class="cls-3" d="M324,115.45l34.87-8.93q28-7.17,56-14.33,35.69-9.07,71.37-18.11Q526.62,63.79,567,53.45q36-9.18,72.06-18.27,38.82-9.88,77.6-19.85,22.64-5.79,45.26-11.52c.11,0,.23-.08.34-.1.82-.15,1.79-.55,2.36.22s0,1.57-.51,2.27C760,11.94,756.39,18,752.6,24c-5.08,8-10.14,16-15.25,23.91-3.87,6-7.85,12-11.71,18C718.79,76.57,712,87.3,705.17,98c-4.72,7.35-9.58,14.6-14.3,22-4.25,6.64-8.39,13.35-12.58,20-1.9,3-4,5.95-5.91,9-6.41,10.25-13.11,20.31-19.62,30.5-7.86,12.29-15.6,24.66-23.47,37-6.24,9.76-12.65,19.42-18.9,29.18-7.94,12.39-15.72,24.88-23.72,37.24-3.9,6-7.81,12-11.59,18.14-1.57,2.54-2,2.57-4.45.7Q553.7,289,536.79,276.21q-30.39-22.9-60.78-45.8Q443.63,206,411.26,181.52q-19-14.39-38.11-28.76T335.05,124C331.54,121.36,328.09,118.63,324,115.45Z"/><path class="cls-3" d="M570.77,309c-.88,7.61-1.83,15.21-2.62,22.82-.86,8.45-2.12,16.86-2.73,25.34-.5,7-1.45,14-2.23,21.05-.61,5.47-1.19,10.94-1.9,16.39-1.38,10.68-2,21.43-3.32,32.13-1.23,10.33-2.64,20.65-3.37,31.05-.5,7.15-1.61,14.26-2.42,21.38-.57,5-1,10-1.65,15-1.37,10.93-2.08,21.91-3.4,32.84-1.47,12.12-2.88,24.24-3.86,36.42-.59,7.38-1.71,14.72-2.57,22.08-.35,3-.62,6-1,8.92-.11.9.34,2.2-.78,2.55s-1.82-.92-2.42-1.72c-1.87-2.49-3.62-5.06-5.41-7.59-5-7-9.94-14.07-15-21.07-4.6-6.41-9.3-12.75-13.9-19.17-4.74-6.6-9.37-13.28-14.11-19.89-6.26-8.74-12.66-17.39-18.85-26.19Q461.24,489.9,453,478.6c-6-8.22-11.48-16.77-17.55-24.9-4.72-6.33-9.16-12.85-13.84-19.21-6.3-8.57-12.35-17.32-18.53-26-4.38-6.13-8.82-12.22-13.2-18.35-5.35-7.48-10.66-15-16-22.49-1.73-2.43-3.56-4.79-5.26-7.25a14.56,14.56,0,0,1-2.22-6.39c-1.37-9.85-4-19.46-5.52-29.27-1.44-9.11-3.54-18.09-5.2-27.15-3.53-19.3-7.36-38.54-10.94-57.83-1.84-9.88-4.1-19.68-5.65-29.61-1.34-8.64-3.64-17.11-4.9-25.74-1.7-11.61-4.76-22.95-6.43-34.56-1.07-7.45-3-14.78-4.46-22.18-.47-2.34-.79-4.71-1.16-7.07a1.8,1.8,0,0,1,.32-1.7c.67-.59,1.38-.13,1.95.27,2.42,1.75,4.84,3.52,7.22,5.32q12,9.12,24,18.26c6.2,4.69,12.47,9.31,18.67,14q17.44,13.23,34.86,26.49c6.1,4.62,12.26,9.16,18.37,13.77q12.62,9.51,25.18,19.07,12,9.07,24.11,18.13,20.06,15.12,40.1,30.28L553,291.75c5.35,4,10.67,8.12,16.08,12.07C571.07,305.24,570.7,307.11,570.77,309Z"/><path class="cls-3" d="M926.63,470.39a18,18,0,0,1,1.61-5.47c2.91-6.7,6-13.33,8.8-20.07,3.62-8.73,7.4-17.39,11.13-26.08,3.44-8,6.76-16.1,10.27-24.1,4.42-10.08,8.49-20.32,12.8-30.45,4.55-10.68,9.24-21.3,13.79-32,4.74-11.11,9.35-22.28,14.09-33.4,4.26-10,8.66-20,12.94-30,3.34-7.81,6.64-15.65,9.84-23.52a3.37,3.37,0,0,1,3.08-2.45c7.49-.86,15-1.82,22.45-2.75,8.67-1.08,17.33-2.18,26-3.24,8.91-1.09,17.83-2.13,26.74-3.21,6.89-.83,13.78-1.69,20.67-2.54.83-.1,1.66-.18,2.49-.3,1.75-.24,2.66.39,3.58,2.09,4.45,8.2,9.19,16.25,13.78,24.38,6.8,12.08,13.54,24.2,20.35,36.28,4.41,7.83,9,15.54,13.3,23.42,5.22,9.56,10.73,18.95,16.06,28.44s10.65,19.24,16.22,28.73c.42.72.65,1.54,1,2.3,1.3,2.83,1.32,2.88-1.67,3.85-13.22,4.28-26.45,8.5-39.66,12.79-16.41,5.32-32.79,10.71-49.19,16q-39.31,12.76-78.63,25.48-26.67,8.64-53.33,17.29-26,8.38-52,16.73C931.13,469.32,929.19,470.26,926.63,470.39Z"/><path class="cls-3" d="M1070.66,137.55q-5,10.33-10,20.68c-5.31,11-10.48,22.06-16,33-2.64,5.24-5.14,10.54-7.74,15.8-5.47,11-11.13,22-16.1,33.28-3.28,7.44-6.42,14.95-9.57,22.46-4.39,10.49-9,20.87-13.47,31.33s-8.77,21-13.23,31.43-9,20.86-13.49,31.32c-4.74,11.12-9.37,22.29-14.11,33.41-4.27,10-8.67,20-12.92,30-4.06,9.59-8,19.23-12,28.82-2.32,5.52-4.72,11-7.11,16.48a13.81,13.81,0,0,1-1.17,2.22c-.53.81-1.16.75-1.64-.07a6.33,6.33,0,0,1-.52-1.33c-.56-1.83-1.08-3.68-1.67-5.5q-5.33-16.38-10.67-32.76c-3.86-11.84-7.63-23.7-11.62-35.49-4.48-13.27-8.58-26.66-13.11-39.92-3.78-11.09-7.2-22.31-10.94-33.43-4.68-14-9-28.05-13.47-42.06-3.67-11.39-7.43-22.76-11.14-34.14q-5.19-15.88-10.32-31.77c-.82-2.53-.82-2.63,1.89-3.49,7.87-2.49,15.77-4.92,23.66-7.36q17-5.24,34-10.46,29.18-9,58.36-18l84.78-26.25q13-4,26.09-8a7.56,7.56,0,0,1,2.82-.46Z"/><path class="cls-3" d="M579.59,299.75c2.16-4.84,5.49-9,8.27-13.41,6.34-10.15,12.94-20.14,19.42-30.2q8.46-13.11,16.91-26.23,10.65-16.62,21.27-33.25c5.36-8.35,10.77-16.67,16.13-25q10.86-16.9,21.67-33.84c5.41-8.47,10.78-17,16.3-25.36,9.08-13.78,17.86-27.76,26.72-41.68,7.26-11.4,14.46-22.85,21.92-34.13,6.12-9.27,11.92-18.76,17.88-28.15a8,8,0,0,1,1.35-1.66c.68-.62,1.32-.44,1.66.42S769.75,9,770,10c3.36,11.12,7,22.15,10.67,33.16,4.09,12.26,7.69,24.68,11.82,36.93,2.64,7.83,5.15,15.7,7.75,23.54,4.29,13,8.64,25.9,12.75,38.92,3.39,10.72,6.92,21.4,10.45,32.08,3.16,9.54,6.21,19.11,9.29,28.68.94,2.92.84,3.15-2,4.2q-23.91,8.88-47.84,17.73c-17.06,6.35-34.1,12.76-51.16,19.11q-22.72,8.46-45.47,16.86L631.06,281.7q-20.88,7.74-41.78,15.47c-3,1.11-5.95,2.53-9.15,3.12Z"/><path class="cls-3" d="M1493.39,6.84c.14,1-.65,1.22-1.23,1.57Q1477.54,17.2,1462.91,26c-11.38,6.86-22.72,13.78-34.09,20.64Q1413.3,56,1397.75,65.32c-9.73,5.87-19.43,11.81-29.17,17.68-11.17,6.74-22.38,13.42-33.55,20.16-12,7.24-24,14.53-35.94,21.77-9.84,5.94-19.71,11.82-29.56,17.75s-19.87,12-29.82,18c-8.2,4.93-16.46,9.79-24.66,14.73-11.58,7-23.12,14-34.7,21-8.2,4.95-16.44,9.82-24.64,14.76-8,4.81-16,9.68-24,14.52-.72.43-1.42.89-2.14,1.31a1.85,1.85,0,0,1-2.95-.82c-3.63-6.6-7.34-13.16-11-19.76-1.9-3.46-3.93-6.83-5.84-10.29-7.4-13.41-15-26.67-22.58-40-3.36-5.93-6.72-11.87-10-17.84-1.68-3-1.64-3.16,1.62-4.18q16.62-5.22,33.28-10.34c12-3.71,24-7.37,36.06-11.08q28.14-8.67,56.29-17.38c15.21-4.7,30.42-9.45,45.64-14.14q45-13.89,89.93-27.74c18.88-5.83,37.74-11.74,56.62-17.57q36.72-11.35,73.46-22.64,10.3-3.18,20.6-6.36C1491.62,6.63,1492.51,6,1493.39,6.84Z"/><path class="cls-3" d="M1499.92,319.84c-2.07,2.47-4.89,3.87-7.38,5.63-15.54,11-31.19,21.8-46.75,32.74-15,10.52-29.86,21.16-44.83,31.68-11.75,8.25-23.57,16.39-35.34,24.61q-9.55,6.67-19,13.47c-1.88,1.36-3.52,1.83-5.89.84-9.49-4-19.1-7.68-28.66-11.49q-15.35-6.12-30.68-12.27l-62.06-24.76a5.6,5.6,0,0,1-2.48-1.45c.3-1.25,1.37-1.93,2.17-2.77,6.45-6.75,13-13.4,19.42-20.2,10.82-11.51,21.83-22.84,32.74-34.28,5.38-5.63,10.83-11.18,16.2-16.81,8.51-8.92,17-17.82,25.44-26.84a5.34,5.34,0,0,1,6-1.7q30.87,7.5,61.8,14.8,44.9,10.62,89.8,21.18c8.85,2.09,17.69,4.23,26.54,6.32A5.31,5.31,0,0,1,1499.92,319.84Z"/><path class="cls-3" d="M320.67,129.49c.06.48.12,1,.19,1.45-.53.1-1.24.1-1.16.86.11.93.87,1.19,1.69,1.29.06.48.12,1,.19,1.44-.53.11-1.24.1-1.16.87s.86,1.19,1.68,1.29l.15,1.44c-.44.06-1,.12-1.05.61-.07.8.66.73,1.18.83l.72,4.28c-1.08.82-.64,1.22.4,1.47.1.71.21,1.41.32,2.12-1.16,1-1.09,1.79.51,2.2.07.46.14.93.2,1.4-1.15,1-1.07,1.8.52,2.19.07.47.14.94.22,1.4-1.2,1.05-1.06,1.79.51,2.2l.21,1.4c-1.2,1.05-1.06,1.79.51,2.2l.21,1.39c-1.2,1.06-1.06,1.8.51,2.2l.21,1.4c-1.14,1-1.14,1.75.43,2.2.35,2.38.71,4.75,1.06,7.13-1.31,1-1,2.36-.73,3.58,1.11,5.76,2.34,11.49,3.45,17.25.2,1,.6,1.48,1.57,1.55a11.67,11.67,0,0,1,.66,3.56c-1.13,1-1.06,1.78.51,2.18.07.47.14.94.22,1.42-1.14,1-1.06,1.79.52,2.18l.21,1.4c-1.16,1-1.09,1.8.51,2.2.07.47.14.93.2,1.4-1.15,1.05-1.07,1.8.52,2.19.07.47.14.94.22,1.41-1.2,1.05-1,1.79.52,2.19.07.47.13.93.2,1.4-1.2,1.05-1.06,1.79.51,2.2l.21,1.4c-1.14,1-1.14,1.74.43,2.19.35,2.38.7,4.75,1.06,7.13-1.24.86-1,2.18-.77,3.28,1.07,5.49,2.3,10.94,3.42,16.42.2,1,.31,1.91,1.6,2,.24,1.43.47,2.86.71,4.28-1.07.82-.63,1.22.4,1.47l.33,2.12c-1.15,1.05-1.08,1.8.51,2.19.07.47.15.94.22,1.4-1.16,1-1.1,1.8.5,2.2.07.47.15.93.22,1.4-1.2,1.06-1.05,1.79.52,2.2.06.46.13.93.2,1.4-1.2,1.06-1.05,1.79.52,2.2.07.46.15.92.22,1.39-1.22,1.06-1.08,1.8.51,2.2l.21,1.39c-1.15,1-1.18,1.74.41,2.21.36,2.37.71,4.75,1.07,7.12-1.25.85-1,2.17-.78,3.28,1.07,5.48,2.3,10.94,3.42,16.42.2,1,.32,1.92,1.6,2l.72,4.27c-1.08.82-.63,1.23.4,1.47l.33,2.12c-1.19,1.05-1.05,1.79.51,2.2l.21,1.4c-1.2,1-1.05,1.79.52,2.2.07.46.13.93.2,1.4-1.2,1.05-1.05,1.79.52,2.19l.21,1.4c-1.22,1.06-1.06,1.8.52,2.2.07.46.15.92.22,1.39-1.24,1.06-1.09,1.81.51,2.21l.21,1.38c-1.11.79-.73,1.23.36,1.5.3,2.16.61,4.32.91,6.48-2,.65-3.34-1.45-5.22-1.36-2.08-3.1-5-5.61-6.32-9.23.24-1.51-.16-2.5-1.94-2.36a.73.73,0,0,1-.21-.52c.17-1.74-.15-3.09-2.33-3a22.46,22.46,0,0,1-3.42-4.94c.16-1.71-.16-3-2.29-3a1.51,1.51,0,0,1-.6-1.29c.24-1.52-.16-2.51-1.94-2.37a.67.67,0,0,1-.22-.52c.18-1.74-.14-3.09-2.33-3-1.21-1.6-2.64-3-3.41-4.95.16-1.7-.16-3-2.29-3a1.47,1.47,0,0,1-.6-1.29c.16-1.66,0-3-2.19-3h0c.19-1.74-.25-3-2.33-2.87-1.21-1.59-2.64-3-3.42-4.94.23-1.51-.18-2.48-1.94-2.34a2.9,2.9,0,0,1-.94-1.94c.16-1.65-.05-3-2.19-3h0c.19-1.75-.25-3-2.34-2.88-1.2-1.59-2.64-3-3.41-4.93.23-1.51-.18-2.49-1.95-2.35a2.85,2.85,0,0,1-.94-1.93c.16-1.66,0-3.05-2.19-3h0q.35-3.22-2.86-3.66a1.53,1.53,0,0,1-.73-1.28c.16-1.71-.15-3.05-2.29-3a7,7,0,0,1-2.76-4.16c.16-1.65,0-3-2.19-3h0c.27-2-.5-3-2.59-3a3.74,3.74,0,0,1-1-2c.16-1.7-.15-3-2.28-3a6.92,6.92,0,0,1-2.78-4.14c.17-1.66,0-3.07-2.18-3h0c.27-2-.5-3-2.59-3a3.6,3.6,0,0,1-1-2c.16-1.72-.16-3.06-2.3-3a7,7,0,0,1-2.76-4.15c.17-1.65,0-3.07-2.18-3h0c.28-2-.52-3.05-2.61-3-2-3.48-5.26-6.1-6.71-9.94.2-1.47-.22-2.43-1.93-2.29a.71.71,0,0,1-.24-.54c.21-1.48-.17-2.47-1.92-2.34-2.08-3.4-5.13-6.15-6.72-9.89.16-1.72-.16-3.05-2.3-3-2.86-4-6.41-7.53-8.52-12.07.27-1.5,1.05-2.9.84-4.49,3.81-3.61,8.26-6.42,12.37-9.65,7.21-5.68,14.64-11.07,22-16.56.95-.71,2-1.28,3-1.91,1.17,0,2.24-.08,2.09-1.68,3.25-3.18,7.11-5.59,10.67-8.38,6.85-5.36,13.87-10.51,20.83-15.74a11.73,11.73,0,0,1,1.56-.86l5,0c.06.48.11,1,.17,1.44-.53.11-1.25.09-1.17.86.1.94.87,1.2,1.69,1.3.06.48.13,1,.19,1.44-.53.1-1.24.1-1.16.87S319.85,129.4,320.67,129.49Z"/><path class="cls-3" d="M1131.16,232.13c5.16.47,10.07,2.12,15.07,3.28,26,6.07,51.92,12.32,77.87,18.5.47.11.92.27,1.39.35a2.16,2.16,0,0,1,2,2.79c-.58,4.14-1,8.32-1.63,12.45-1.2,7.56-1.81,15.19-2.74,22.79-1.23,10-2.74,19.89-4,29.85-.9,7-1.57,14-2.44,21q-1.53,12.29-3.24,24.54c-.23,1.67-.33,3.33-.43,5-.08,1.29.12,2.65-.92,4-1.9-1.57-2.76-3.83-3.91-5.8-3.18-5.48-6.17-11.07-9.25-16.6q-6.47-11.6-13-23.17c-3.06-5.42-6.16-10.82-9.23-16.22-5.68-10-11.49-19.88-17-30-5-9.24-10.49-18.25-15.45-27.52-4.45-8.32-9.8-16.15-13.54-24.85Z"/><path class="cls-3" d="M206,76.05c4.5.8,8.65,2.72,12.92,4.21,11.75,4.11,23.43,8.39,35.14,12.6l61.14,22c.78.28,1.82.35,2,1.27.27,1.17-.84,1.55-1.59,2.12q-18.6,14.06-37.19,28.11-17.64,13.26-35.33,26.45c-1.89,1.41-3.47,3.28-5.82,4.07-1-.56-1-1.64-1.24-2.48-3.21-9.9-6.51-19.78-9.52-29.74-5.38-17.75-10.93-35.44-16.47-53.13-1.56-5-3.42-10-4.45-15.11Z"/><path class="cls-3" d="M1214.7,380.45l127,50.91-12.7,9q-17.78,12.49-35.55,25-10.29,7.21-20.64,14.33c-2.22,1.53-2.35,1.55-3.8-.88-2.39-4-4.64-8.1-6.92-12.17q-4.83-8.59-9.62-17.22c-4.25-7.63-8.46-15.28-12.74-22.89-2.82-5-5.76-9.94-8.58-15-4.35-7.71-8.63-15.45-12.95-23.17-.7-1.25-1.5-2.45-2.16-3.73C1215.42,383.5,1214.37,382.53,1214.7,380.45Z"/><path class="cls-3" d="M1311.17,274.83c-.1,1.28-1.07,1.91-1.77,2.65-5.67,6-11.41,11.92-17.11,17.89q-12.64,13.23-25.28,26.5-11.55,12.08-23.13,24.11-12.78,13.38-25.53,26.76c-.63.66-1.07,1.63-2.39,1.67a23.73,23.73,0,0,1,.71-6.65c1.57-9.09,2-18.3,3.4-27.41q1.76-11.72,3.24-23.46c.65-5.22,1-10.48,1.72-15.69,1.42-9.83,2.72-19.67,4-29.51.47-3.56.74-7.14,1.1-10.71.06-.59.06-1.2.15-1.79.52-3.36.92-3.63,4.21-2.85l60.44,14.35c4.77,1.14,9.55,2.23,14.33,3.33A3.39,3.39,0,0,1,1311.17,274.83Z"/><path class="cls-3" d="M1026.18,241c-1.42,0-1.88-.43-1.45-1.54a6.23,6.23,0,0,1,.41-1c3.15-5.11,5.09-10.82,8-16.07s4.94-10.62,7.5-15.88c2-4.2,4.26-8.29,6.23-12.53,4.48-9.65,9.31-19.14,14-28.71q5.88-12.09,11.68-24.23c.3-.62.32-1.53,1.22-1.56s1.15.76,1.5,1.38l10,17.83c6.83,12.21,13.57,24.47,20.53,36.6q8.65,15.09,17,30.33c1.58,2.87,1.45,3.31-1.86,3.77-4.38.6-8.78,1.05-13.17,1.59q-13.71,1.67-27.41,3.37l-25.64,3.11-27,3.28C1027.05,240.81,1026.47,240.94,1026.18,241Z"/><path class="cls-3" d="M333.21,197.13c-1-.07-1.37-.57-1.57-1.55-1.11-5.76-2.34-11.49-3.45-17.25-.23-1.22-.58-2.61.73-3.58C330.61,182.16,332.7,189.49,333.21,197.13Z"/><path class="cls-3" d="M344,253.24c-1.29-.05-1.4-1-1.6-2-1.12-5.48-2.35-10.93-3.42-16.42-.22-1.1-.47-2.42.77-3.28A140.1,140.1,0,0,1,344,253.24Z"/><path class="cls-3" d="M354.75,310.08c-1.28-.05-1.4-1-1.6-2-1.12-5.48-2.35-10.94-3.42-16.42-.22-1.11-.47-2.43.78-3.28C352.31,295.55,354.09,302.71,354.75,310.08Z"/><path class="cls-3" d="M355.88,342.53c1.88-.09,3.19,2,5.22,1.36a14.32,14.32,0,0,1,.88,7.5Z"/><path class="cls-3" d="M319.26,122.3l-5,0c1-1.41,2.61-1.83,3.65-3A3.35,3.35,0,0,1,319.26,122.3Z"/><path class="cls-3" d="M241.75,177c.21,1.59-.57,3-.84,4.49C238.33,178.86,238.34,178.85,241.75,177Z"/><path class="cls-3" d="M301.38,266.21q3.21.44,2.86,3.66A6.27,6.27,0,0,1,301.38,266.21Z"/><path class="cls-3" d="M280.06,236.69c2.09-.08,2.86,1,2.59,3A6.45,6.45,0,0,1,280.06,236.69Z"/><path class="cls-3" d="M290.85,251.8c2.09-.08,2.86,1,2.59,3A6.43,6.43,0,0,1,290.85,251.8Z"/><path class="cls-3" d="M269.25,221.58c2.09-.08,2.89,1,2.61,3A6.49,6.49,0,0,1,269.25,221.58Z"/><path class="cls-3" d="M293.41,254.76c2.16,0,2.35,1.37,2.19,3C294.63,257,293.62,256.15,293.41,254.76Z"/><path class="cls-3" d="M298.36,261.94c2.14-.06,2.45,1.28,2.29,3A5.87,5.87,0,0,1,298.36,261.94Z"/><path class="cls-3" d="M304.2,269.87c2.16,0,2.35,1.36,2.19,3A5.16,5.16,0,0,1,304.2,269.87Z"/><path class="cls-3" d="M312.69,282.1c2.09-.1,2.53,1.13,2.34,2.88A5.11,5.11,0,0,1,312.69,282.1Z"/><path class="cls-3" d="M323.49,297.21c2.08-.1,2.52,1.13,2.33,2.87A5.07,5.07,0,0,1,323.49,297.21Z"/><path class="cls-3" d="M325.79,300.08c2.15,0,2.35,1.36,2.19,3C327,302.26,326,301.45,325.79,300.08Z"/><path class="cls-3" d="M328.58,304.39c2.13-.06,2.45,1.28,2.29,3A5.75,5.75,0,0,1,328.58,304.39Z"/><path class="cls-3" d="M334.28,312.32c2.19-.1,2.51,1.25,2.33,3A6.21,6.21,0,0,1,334.28,312.32Z"/><path class="cls-3" d="M339.37,319.49c2.13-.05,2.45,1.28,2.29,3A5.77,5.77,0,0,1,339.37,319.49Z"/><path class="cls-3" d="M345.08,327.42c2.18-.09,2.5,1.26,2.33,3A6.18,6.18,0,0,1,345.08,327.42Z"/><path class="cls-3" d="M249.43,193.6c2.14-.07,2.46,1.26,2.3,3A5.82,5.82,0,0,1,249.43,193.6Z"/><path class="cls-3" d="M315,285c2.14,0,2.35,1.37,2.19,3C316.21,287.16,315.21,286.35,315,285Z"/><path class="cls-3" d="M271.83,224.55c2.18,0,2.35,1.38,2.18,3C273,226.74,272,225.93,271.83,224.55Z"/><path class="cls-3" d="M276.77,231.73c2.14-.07,2.46,1.27,2.3,3A5.88,5.88,0,0,1,276.77,231.73Z"/><path class="cls-3" d="M282.62,239.66c2.17,0,2.35,1.37,2.18,3A5.27,5.27,0,0,1,282.62,239.66Z"/><path class="cls-3" d="M287.58,246.83c2.13-.05,2.44,1.29,2.28,3A5.72,5.72,0,0,1,287.58,246.83Z"/><path class="cls-3" d="M321.39,133.09c-.82-.1-1.58-.36-1.69-1.29-.08-.76.63-.76,1.16-.86A2.94,2.94,0,0,1,321.39,133.09Z"/><path class="cls-3" d="M320.67,129.49c-.82-.09-1.58-.36-1.69-1.28s.63-.77,1.16-.87A3,3,0,0,1,320.67,129.49Z"/><path class="cls-3" d="M258.45,206.47c1.75-.13,2.13.86,1.92,2.34C259.64,208.11,258.3,207.9,258.45,206.47Z"/><path class="cls-3" d="M322.1,136.69c-.82-.1-1.58-.37-1.68-1.29s.63-.76,1.16-.87A2.92,2.92,0,0,1,322.1,136.69Z"/><path class="cls-3" d="M320,125.9c-.82-.1-1.59-.36-1.69-1.3-.08-.77.64-.75,1.17-.86A3,3,0,0,1,320,125.9Z"/><path class="cls-3" d="M347.62,330.94c1.78-.14,2.18.85,1.94,2.36A5.38,5.38,0,0,1,347.62,330.94Z"/><path class="cls-3" d="M359.62,334.53c-1.6-.4-1.75-1.15-.51-2.21A2.55,2.55,0,0,1,359.62,334.53Z"/><path class="cls-3" d="M325.78,156.83c-1.57-.41-1.71-1.15-.51-2.2A2.41,2.41,0,0,1,325.78,156.83Z"/><path class="cls-3" d="M337.3,217.26c-1.57-.4-1.72-1.14-.52-2.19A2.45,2.45,0,0,1,337.3,217.26Z"/><path class="cls-3" d="M325.05,153.23c-1.59-.39-1.67-1.15-.52-2.19A2.37,2.37,0,0,1,325.05,153.23Z"/><path class="cls-3" d="M324.33,149.64c-1.6-.41-1.67-1.16-.51-2.2A2.38,2.38,0,0,1,324.33,149.64Z"/><path class="cls-3" d="M336.56,213.66c-1.59-.39-1.67-1.14-.52-2.19A2.34,2.34,0,0,1,336.56,213.66Z"/><path class="cls-3" d="M346.63,266.9c-1.6-.4-1.66-1.16-.5-2.2A2.41,2.41,0,0,1,346.63,266.9Z"/><path class="cls-3" d="M347.37,270.5c-1.57-.41-1.72-1.14-.52-2.2A2.48,2.48,0,0,1,347.37,270.5Z"/><path class="cls-3" d="M260.61,209.35c1.71-.14,2.13.82,1.93,2.29A4.57,4.57,0,0,1,260.61,209.35Z"/><path class="cls-3" d="M348.09,274.1c-1.57-.41-1.72-1.14-.52-2.2A2.41,2.41,0,0,1,348.09,274.1Z"/><path class="cls-3" d="M307.33,274.82c1.77-.14,2.18.84,1.95,2.35A5,5,0,0,1,307.33,274.82Z"/><path class="cls-3" d="M348.82,277.69c-1.59-.4-1.73-1.14-.51-2.2A2.5,2.5,0,0,1,348.82,277.69Z"/><path class="cls-3" d="M335.12,206.47c-1.58-.39-1.66-1.14-.52-2.18A2.37,2.37,0,0,1,335.12,206.47Z"/><path class="cls-3" d="M349.44,281.29c-1.59-.47-1.56-1.23-.41-2.21A2.38,2.38,0,0,1,349.44,281.29Z"/><path class="cls-3" d="M338,220.86c-1.57-.41-1.71-1.15-.51-2.2A2.4,2.4,0,0,1,338,220.86Z"/><path class="cls-3" d="M334.38,202.87c-1.57-.4-1.64-1.15-.51-2.18A2.32,2.32,0,0,1,334.38,202.87Z"/><path class="cls-3" d="M327.86,167.62c-1.57-.45-1.57-1.21-.43-2.2A2.33,2.33,0,0,1,327.86,167.62Z"/><path class="cls-3" d="M318.13,289.93c1.76-.14,2.17.83,1.94,2.34A4.88,4.88,0,0,1,318.13,289.93Z"/><path class="cls-3" d="M357.44,323.74c-1.57-.41-1.72-1.15-.52-2.2A2.43,2.43,0,0,1,357.44,323.74Z"/><path class="cls-3" d="M335.84,210.07c-1.6-.4-1.67-1.16-.51-2.2A2.44,2.44,0,0,1,335.84,210.07Z"/><path class="cls-3" d="M327.22,164c-1.57-.4-1.71-1.14-.51-2.2A2.44,2.44,0,0,1,327.22,164Z"/><path class="cls-3" d="M336.83,315.83c1.78-.14,2.18.85,1.94,2.37A5.35,5.35,0,0,1,336.83,315.83Z"/><path class="cls-3" d="M356.71,320.14c-1.56-.41-1.7-1.15-.51-2.2A2.41,2.41,0,0,1,356.71,320.14Z"/><path class="cls-3" d="M338.65,224.45c-1.57-.45-1.57-1.21-.43-2.19A2.29,2.29,0,0,1,338.65,224.45Z"/><path class="cls-3" d="M326.5,160.43c-1.57-.41-1.71-1.15-.51-2.2A2.4,2.4,0,0,1,326.5,160.43Z"/><path class="cls-3" d="M358.16,327.33c-1.57-.4-1.72-1.14-.52-2.19A2.42,2.42,0,0,1,358.16,327.33Z"/><path class="cls-3" d="M345.91,263.3c-1.59-.39-1.66-1.14-.51-2.19A2.36,2.36,0,0,1,345.91,263.3Z"/><path class="cls-3" d="M358.89,330.93c-1.58-.4-1.74-1.14-.52-2.2A2.47,2.47,0,0,1,358.89,330.93Z"/><path class="cls-3" d="M281.21,147.24c.15,1.6-.92,1.71-2.09,1.68A3.08,3.08,0,0,1,281.21,147.24Z"/><path class="cls-3" d="M322.38,139.57c-.52-.1-1.25,0-1.18-.83,0-.49.61-.55,1.05-.61C322.3,138.61,322.34,139.09,322.38,139.57Z"/><path class="cls-3" d="M355.87,315.82c-1-.24-1.48-.65-.4-1.47A1.35,1.35,0,0,1,355.87,315.82Z"/><path class="cls-3" d="M345.07,259c-1-.25-1.47-.65-.4-1.47A1.31,1.31,0,0,1,345.07,259Z"/><path class="cls-3" d="M323.5,145.32c-1-.25-1.48-.65-.4-1.47A1.3,1.3,0,0,1,323.5,145.32Z"/><path class="cls-3" d="M360.19,337.41c-1.09-.27-1.47-.71-.36-1.5A1.42,1.42,0,0,1,360.19,337.41Z"/><path class="cls-3" d="M1494.81,6.41l-.24-.43a3.12,3.12,0,0,1,.61-.11c.07,0,.14.17.21.26Z"/><path class="cls-3" d="M205.59,76.42l-.21-.56.57.19Z"/><polygon class="cls-3" points="321.93 117.87 321.83 117.61 322.07 117.62 321.93 117.87"/><path class="cls-3" d="M1070.3,137.2c.21-.23.43-.46.68-.08,0,0-.21.28-.33.43Z"/><path class="cls-3" d="M841.22,205.26c-.26.25-.54.47-.8.05,0-.08.21-.35.32-.53Z"/><path class="cls-3" d="M1130.72,232.58c-.11-.17-.35-.42-.3-.49.24-.38.5-.19.74,0Z"/><path class="cls-3" d="M580.13,300.29c-.28.25-.59.47-.85,0-.06-.09.2-.37.32-.57Z"/></g></svg>